DBRep_DrawableShape

CASCADE Topology V3, (c) Open Cascade
Locations 0
Curve2ds 8
1 0 0 0 -1 
1 6.2831853071795862 0 0 -1 
1 0 0 1 0 
1 0 -8 1 0 
1 0 0 0 -1 
1 6.2831853071795862 0 0 -1 
1 0 0 1 0 
1 0 -8 1 0 
Curves 6
1 7 0 0 -0 -1 -0 
2 0 0 0 -0 -1 -0 1 -0 -0 -0 -0 1 7
2 0 -8 0 -0 -1 -0 1 -0 -0 -0 -0 1 7
1 3.3000000000000327 0 1.9032394707859833e-16 -0 -1 -0 
2 3.286260152890464e-14 0 1.9032394707859833e-16 -0 -1 -0 1 -0 -0 -0 -0 1 3.2999999999999998
2 3.286260152890464e-14 -8 1.9032394707859833e-16 -0 -1 -0 1 -0 -0 -0 -0 1 3.2999999999999998
Polygon3D 0
PolygonOnTriangulations 0
Surfaces 4
2 0 0 0 -0 1 -0 1 -0 -0 -0 -0 1 7
2 3.286260152890464e-14 0 1.9032394707859833e-16 -0 1 -0 1 -0 -0 -0 -0 1 3.2999999999999998
1 -1.9534859036277474e-16 0 4.9564344165004988e-16 -0 1 -0 -0 -0 -1 1 -0 -0 
1 -1.9534859036277474e-16 -8 4.9564344165004988e-16 -0 1 -0 -0 -0 -1 1 -0 -0 
Triangulations 0

TShapes 22
Ve
1e-07
7 0 0
0 0

0101101
*
Ve
1e-07
7 -8 0
0 0

0101101
*
Ed
 1e-07 1 1 0
1  1 0 0 8
3  1 2CN 1 0 0 8
0

0101000
+22 0 -21 0 *
Ed
 1e-07 1 1 0
1  2 0 0 6.28318530717959
2  3 1 0 0 6.28318530717959
0

0101000
+22 0 -22 0 *
Ed
 1e-07 1 1 0
1  3 0 0 6.28318530717959
2  4 1 0 0 6.28318530717959
0

0101000
+21 0 -21 0 *
Wi

0101100
+20 0 -20 0 -19 0 +18 0 *
Fa
0  1e-07 1 0

0101000
+17 0 *
Ve
1e-07
3.30000000000003 0 1.90323947078598e-16
0 0

0101101
*
Ve
1e-07
3.30000000000003 -8 1.90323947078598e-16
0 0

0101101
*
Ed
 1e-07 1 1 0
1  4 0 0 8
3  5 6CN 2 0 0 8
0

0101000
+15 0 -14 0 *
Ed
 1e-07 1 1 0
1  5 0 0 6.28318530717959
2  7 2 0 0 6.28318530717959
0

0101000
+15 0 -15 0 *
Ed
 1e-07 1 1 0
1  6 0 0 6.28318530717959
2  8 2 0 0 6.28318530717959
0

0101000
+14 0 -14 0 *
Wi

0101100
+13 0 -13 0 -12 0 +11 0 *
Fa
0  1e-07 2 0

0101000
+10 0 *
Wi

0101100
+19 0 *
Wi

0101100
-12 0 *
Fa
0  1e-07 3 0

0101000
+8 0 +7 0 *
Wi

0101100
+18 0 *
Wi

0101100
-11 0 *
Fa
0  1e-07 4 0

0101000
+5 0 +4 0 *
Sh

0101100
-16 0 +9 0 -6 0 +3 0 *
So

1100000
+2 0 *

+1 0 