DBRep_DrawableShape

CASCADE Topology V3, (c) Open Cascade
Locations 10
1
              1              -0               0              -0 
              0               1               0               0 
             -0               0               1              -0 
2  1 -1 0
1
              1              -0               0              -0 
              0               1               0               0 
             -0               0               1              -0 
2  3 -1 0
1
              1              -0               0              -0 
              0               1               0               0 
             -0               0               1              -0 
2  5 -1 0
1
              1              -0               0              -0 
              0               1               0               0 
             -0               0               1              -0 
2  7 -1 0
1
              1              -0               0              -0 
              0               1               0               0 
             -0               0               1              -0 
2  9 -1 0
Curve2ds 200
1 0 0 0 1 
1 0 0 0 1 
1 0 0 1 0 
1 0 0 1 0 
1 -4.0037627082570193 0 1 0 
1 -0.78539816339744739 0 1 0 
1 -4.7123889803846897 0 1 0 
1 -1.5707963267948966 0 1 0 
1 1.5707963267948966 0 0 1 
1 -3.1415926535897931 0 1 0 
1 0 0 0 1 
1 0 0 1 0 
1 0 0 1 0 
1 -3.1415926535897931 0 1 0 
1 -1.5707963267948966 0 1 0 
1 0 0 1 0 
1 0 0 1 0 
1 0 0 1 0 
1 -1.5707963267948966 0 1 0 
1 -3.1415926535897931 0 1 0 
1 0 0 1 0 
1 0 0 1 0 
1 0 0 1 0 
1 0 0 1 0 
1 1.4056476493802699 0 0 1 
1 0 8 1 0 
1 -4.0037627082570193 8 1 0 
1 1.5707963267948966 100 0 1 
1 0 8 1 0 
1 0 8 1 0 
1 0 0 0 1 
1 1.5707963267948966 100 0 1 
1 0 8 1 0 
1 0 8 1 0 
1 6.2831853071795862 8 -1 0 
1 0 8 1 0 
1 0 200 1 0 
1 -0.78539816339744739 8 1 0 
1 0 8 1 0 
1 6.2831853071795862 -8 -1 0 
1 6.2831853071795862 -8 -1 0 
1 6.2831853071795862 -8 -1 0 
1 6.2831853071795862 -8 -1 0 
1 6.2831853071795862 -8 -1 0 
1 0.78539816339744828 0 0 1 
1 0.54347759471304347 0 0 1 
1 0 0 0 1 
1 0 0 0 1 
1 0.78539816339744828 0 0 1 
1 0.70862627212767026 0 0 1 
1 0 0 0 1 
1 0 0 0 1 
1 1.5707963267948966 0 0 1 
1 6.2831853071795862 9 -1 0 
1 0 9 1 0 
1 0 9 1 0 
1 0 0 0 1 
1 -4.7123889803846897 8 1 0 
1 1.5707963267948966 0 0 1 
1 -1.5707963267948966 8 1 0 
1 1.5707963267948966 0 0 1 
1 1.5707963267948966 0 0 1 
1 1.5707963267948966 0 0 1 
1 0 1 1 0 
1 0 1 1 0 
1 6.2831853071795862 1 -1 0 
1 -1.5707963267948966 0 1 0 
1 -1.5707963267948966 8 1 0 
1 0 0 0 1 
1 -3.1415926535897931 8 1 0 
1 0 8 1 0 
1 0 8 1 0 
1 -3.1415926535897931 8 1 0 
1 6.2831853071795862 -9 -1 0 
1 6.2831853071795862 -9 -1 0 
1 6.2831853071795862 -9 -1 0 
1 0 9 1 0 
1 0 9 1 0 
1 0 9 1 0 
1 6.2831853071795862 9 -1 0 
1 6.2831853071795862 -9 -1 0 
1 -3.1415926535897931 0 1 0 
1 0 0 0 1 
1 6.2831853071795862 123 -1 0 
1 0 0 0 1 
7 0 0  5 6 2  0 8.4606079858305439  0.048119929505954742 8.5514060922319395  0.095092164875622817 8.6520419130648634  0.14086690058894144 8.7614093566027513  0.18536537680791765 8.8780084388187195  0.22846570441231417 9.0000005999999999 
 0 6 1 6
7 0 0  5 6 2  1.2661036727794992 123  1.2358376373123672 123  1.2059334071192214 123.01736657972333  1.1765275306126117 123.05044209069187  1.1477562905788981 123.09734075451259  1.1197693773492126 123.15590979755507 
 0 6 1 6
1 0 9 1 0 
1 1.5707963267948966 0 0 1 
1 1.5707963267948966 0 0 1 
1 1.5707963267948966 0 0 1 
1 0 0 0 1 
1 0 0 0 1 
7 0 0  5 6 2  0 8.4606079858305439  0.048119929505958156 8.5514060922319466  0.095092164875630006 8.6520419130648776  0.14086690058892437 8.761409356602714  0.18536537680792858 8.8780084388187479  0.22846570441231506 9.0000005999999999 
 0 6 1 6
7 0 0  5 6 2  1.2661036727794992 165  1.2358376373123652 165  1.2059334071192158 164.98263342027667  1.1765275306126239 164.94955790930814  1.1477562905788907 164.9026592454874  1.1197693773492119 164.84409020244493 
 0 6 1 6
1 -3.1415926535897931 9 1 0 
1 1.5707963267948966 0 0 1 
1 6.2831853071795862 165 -1 0 
1 0 0 0 -1 
1 6.2831853071795862 0 0 -1 
1 0 0 0 -1 
1 6.2831853071795862 0 0 -1 
1 0 0 0 1 
1 0 0 0 1 
7 0 0  7 8 2  0.98511078333774549 8  1.073385954933048 8  1.1592787997372889 8.0099999894534335  1.2433462229259442 8.0234418987137097  1.3260656585558066 8.0361286500704008  1.4079038173386951 8.0454546817746202  1.4893168042201324 8.0501256289338006  1.5707963267948966 8.0501256289338006 
 0 8 1 8
7 0 0  7 8 2  1.5707963267948966 134.68337520964459  1.5415187645463109 135.1247510676211  1.5175768979754101 135.58436721525891  1.4986764964981878 136.05646390684876  1.4846274241626991 136.53691796059286  1.4752994889593216 137.02264472183921  1.4706289056333368 137.51112286455142  1.4706289056333368 138 
 0 8 1 8
1 1.5707963267948966 0 0 1 
1 0 0 0 1 
1 1.4706289056333368 0 0 1 
7 0 0  7 8 2  0 8.0501256289338006  0.081479522808559357 8.0501256289338006  0.16289250921523724 8.0454546817508774  0.2447306675484241 8.0361286501236169  0.32745010326056923 8.023441898929411  0.41151752705758804 8.0099999892989064  0.49741037256205306 8  0.58568554345715107 8 
 0 8 1 8
7 0 0  7 8 2  1.4706289056333368 160  1.4706289056333368 160.48887713685136  1.4752994889868485 160.97735527670963  1.4846274240938897 161.4630820352381  1.4986764963330781 161.94353608969311  1.517576897903741 162.41563278521386  1.5415187647785424 162.87524893587991  1.5707963267948966 163.31662479035541 
 0 8 1 8
1 1.5707963267948966 0 0 1 
1 0 0 0 1 
1 1.5707963267948966 0 0 1 
1 1.5707963267948966 0 0 1 
1 0 0 0 -1 
1 6.2831853071795862 0 0 -1 
1 0 0 0 -1 
1 6.2831853071795862 0 0 -1 
1 0 0 0 -1 
1 6.2831853071795862 0 0 -1 
1 6.2831853071795862 100 -1 0 
1 0 100 0 1 
1 0 180 -0 -1 
1 6.2831853071795862 170 -1 -0 
1 0 -6.2831853071795862 0 1 
1 1.1197695149986335 0 0 1 
1 -4.7123889803846897 10 1 0 
1 1.5707963267948966 -6.2831853071795862 0 1 
1 1.5707963267948966 132 -0 -1 
1 -4.7123889803846897 122 1 0 
1 1.5707963267948966 -6.2831853071795862 0 1 
1 0 100 0 1 
1 0 110.00000000000003 0 1 
1 6.2831853071795862 170 -1 -0 
1 0 -6.2831853071795862 0 1 
7 0 0  6 37 8  1.5707963267948966 109.99366834874635  1.5292196860086211 109.92519621306214  1.4887327204871394 109.83152728488952  1.4494872054703001 109.71472439848762  1.4116457632487949 109.57742133730471  1.3753907489948565 109.42285714687951  1.3211957863479047 109.15893038146145  1.3019982445426326 109.05823838434196  1.283315008808837 108.95333043768166  1.2651356087540495 108.84458783286254  1.2474501621763483 108.73234894732673  1.2170199172099416 108.52812842754567  1.2040756283560361 108.43744324316015  1.1914098025383797 108.34497386519458  1.1790167413157215 108.25082578390668  1.166891117812739 108.15508898032549  1.1233701810787691 107.79831526090437  1.0935670651476259 107.52789225936301  1.0655464964541539 107.2481191414181  1.0392597983726028 106.95995590677531  1.0146890274606901 106.66389500785448  0.96711433449164386 106.03092563149093  0.94440222747427305 105.69253565892471  0.92380120776304486 105.34580212235875  0.90542798087599574 104.99138340212427  0.88942620626876101 104.62971569782249  0.86316581343117738 103.91071867876289  0.85265066915164023 103.55379005683356  0.84462647604687857 103.19217133472034  0.83923351322563011 102.82741185968318  0.83654885046459682 102.46083415535944  0.83662554138859413 101.73931513714795  0.83920055457040266 101.38546985637065  0.84429889912979394 101.03329705823349  0.85185208251975519 100.68400535760509  0.86173576451346567 100.33899833840742  0.87376331457620893 99.999999399999993 
 0 7 0.14631945240916919 5 0.23003918042555743 5 0.29442416571277413 5 0.46624094599554899 5 0.65239265776527344 5 0.82927347418588349 5 1 7
7 0 0  6 37 8  0.16322380351641463 200  0.21589467711965954 200  0.26773335560071354 199.97925638653834  0.31861430199322982 199.93980930540926  0.36838680308765981 199.88421587561382  0.41685819003327557 199.81549009884884  0.4906100534020929 199.69200267151052  0.51701898405677971 199.64371421991541  0.54301654203370253 199.59253807344075  0.56862203450939441 199.53889569006142  0.59385448006460051 199.48317242544991  0.63786721171524363 199.38153440824817  0.65679434333856379 199.33632093437907  0.67552644041014098 199.29023109129204  0.69407487647598087 199.24340629720243  0.71245108136047997 199.19597698332436  0.77927603670744849 199.02019899200062  0.82676321082740101 198.88882505574563  0.87331759994682479 198.75629374058386  0.91912365289406928 198.62455701513701  0.96436563067415915 198.49535739790034  1.0578426924730204 198.23505783347338  1.106032300076083 198.1046432562724  1.1539346542808213 197.98166999901048  1.2016790660326426 197.86858509590306  1.2494044287234902 197.76780367679461  1.3427492448507965 197.59966909988313  1.3883915730024621 197.5308357611508  1.434106703403411 197.47747497629257  1.4798718485707887 197.44133908568378  1.5256920431697965 197.42335176580826  1.6158819485232376 197.42386559480803  1.660114449736662 197.44111824154922  1.7042963685913737 197.4752735532949  1.7484300938914183 197.52551273717413  1.7924936787112766 197.59029171457649  1.8364085540907844 197.66750204029975 
 0 7 0.14631945240916919 5 0.23003918042555743 5 0.29442416571277413 5 0.46624094599554899 5 0.65239265776527344 5 0.82927347418588349 5 1 7
1 0 100 1 0 
1 1.8364084763650999 0 0 1 
1 0 0 1 0 
1 0 0 0 1 
1 0 0 0 1 
1 2.3561944901923448 0 0 1 
1 6.2831853071795862 1 -1 0 
1 2.3561944901923448 0 0 1 
1 0 0 0 1 
1 0 1 1 0 
1 1.5707963267948966 0 0 1 
1 0 0 0 1 
1 0 1 1 0 
1 0 0 1 0 
1 0 0 0 1 
1 0 0 0 1 
1 0 9 1 0 
1 1.5707963267948966 0 0 1 
1 0 0 0 1 
1 0 9 1 0 
1 2.3561944901923448 0 0 1 
1 2.3561944901923448 0 0 1 
1 0 0 0 1 
1 6.2831853071795862 9 -1 0 
1 0 100 1 0 
1 6.2831853071795862 100 -1 0 
1 6.2831853071795862 -1 -1 0 
1 0 0 0 -1 
1 6.2831853071795862 0 0 -1 
1 6.2831853071795862 -1 -1 0 
1 0 0 0 -1 
1 6.2831853071795862 0 0 -1 
1 6.2831853071795862 -1 -1 0 
1 0 0 0 -1 
1 6.2831853071795862 0 0 -1 
1 0 0 0 1 
1 1.5707963267948966 0 0 1 
1 0 1 1 0 
1 0 0 0 1 
1 1.5707963267948966 0 0 1 
1 0 1 1 0 
1 0 0 0 1 
1 1.5707963267948966 0 0 1 
1 0 1 1 0 
1 1.5707963267948966 0 0 1 
1 0 0 0 1 
1 6.2831853071795862 1 -1 0 
1 6.2831853071795862 -1 -1 0 
1 0 0 0 -1 
1 6.2831853071795862 0 0 -1 
1 0 100 0 1 
1 0 -1.5707963267948966 1 0 
1 0 0 1 0 
1 0 170 1 0 
1 1.5707963267948966 100 0 1 
1 1.5707963267948966 100 0 1 
1 0 -1.5707963267948966 1 0 
1 0 0 1 0 
1 0 170 1 0 
1 0 100 0 1 
1 0 100 0 1 
1 0 100 0 1 
Curves 262
1 -46 -16 -42 1 -0 -0 
1 -42.611491646467854 -16 -42 -0 1 -0 
8 0 102.95463739697549
1 60.343145750507631 -8 -42 -1 -0 -0 
1 60.343145750507631 -16 -42 -0 1 -0 
8 0 1.4056476493802688
2 -42.611491646467854 -16 -38 0 1 -0 -0 -0 -1 -1 0 -0 4
8 0 0.78539816339744828
2 60.343145750507631 -16 -38 0 -1 0 0 -0 -1 1 -0 -0 4
1 -50 -16 -18 0.16439898730535729 -0 -0.98639392383214375 
1 62 -16 -42 0.70710678118654757 -0 0.70710678118654757 
8 4.0037627082570202 4.5472403029700619
2 -53.762349065447779 -16 -19.756955728506185 0 1 -0 -0 -0 -1 -1 0 -0 4
8 0.78539816339744772 1.5707963267948974
2 70 -16 -28.343145750507627 0 -1 0 0 -0 -1 1 -0 -0 4
1 -74 -16 10 0.65079137345596849 -0 -0.75925660236529657 
1 74 -16 -30 -0 -0 1 
8 4.7123889803846906 5.4210152525123592
2 -70 -16 11.479696304861939 0 -1 0 0 -0 -1 1 -0 -0 4
8 1.5707963267948966 3.1415926535897931
2 70 -16 76 0 -1 0 0 -0 -1 1 -0 -0 4
1 -74 -16 80 -0 -0 -1 
1 70 -16 80 -0 -0 1 
8 3.1415926535897931 4.7123889803846897
2 -70 -16 76 0 -1 0 0 -0 -1 1 -0 -0 4
1 74 -16 88 -1 -0 -0 
1 -70 -16 80 -0 -0 1 
1 -65 -16 23 1 -0 -0 
8 0 1.5707963267948966
2 -59 -16 29 0 1 -0 -0 -0 -1 -1 0 -0 6
8 0 1.5707963267948966
2 -55 -16 29 0 -1 0 0 -0 -1 1 -0 -0 6
1 -65 -16 65 -0 -0 -1 
1 -49 -16 23 -0 -0 1 
8 3.1415926535897931 4.7123889803846897
2 -59 -16 59 0 -1 0 0 -0 -1 1 -0 -0 6
8 1.5707963267948966 3.1415926535897931
2 -55 -16 59 0 -1 0 0 -0 -1 1 -0 -0 6
1 -49 -16 65 -1 -0 -0 
2 -24.699999999999999 -16 42.299999999999997 -0 -1 -0 1 -0 -0 -0 -0 1 3.2999999999999998
2 2.1000000000000001 -16 55 -0 -1 -0 1 -0 -0 -0 -0 1 3.2999999999999998
1 23 -16 32 1 -0 -0 
8 0 1.5707963267948966
2 51 -16 38 0 -1 0 0 -0 -1 1 -0 -0 6
1 57 -16 32 -0 -0 1 
8 1.5707963267948966 3.1415926535897931
2 51 -16 60 0 -1 0 0 -0 -1 1 -0 -0 6
1 57 -16 66 -1 -0 -0 
8 3.1415926535897931 4.7123889803846897
2 29 -16 60 0 -1 0 0 -0 -1 1 -0 -0 6
1 23 -16 66 -0 -0 -1 
8 0 1.5707963267948966
2 29 -16 38 0 1 -0 -0 -0 -1 -1 0 -0 6
2 0 -16 0 -0 -1 -0 1 -0 -0 -0 -0 1 30
2 54.700000000000003 -16 2.1000000000000001 -0 -1 -0 1 -0 -0 -0 -0 1 3.2999999999999998
2 41.799999999999997 -16 -24.600000000000001 -0 -1 -0 1 -0 -0 -0 -0 1 3.2999999999999998
1 -46.557067341796426 -16 -38.657595949221431 -0 1 -0 
8 0 1.4056476493802688
2 -42.611491646467854 -8 -38 0 1 -0 -0 -0 -1 -1 0 -0 4
1 -50 -8 -18 0.16439898730535729 -0 -0.98639392383214375 
8 4.0037627082570202 4.5472403029700619
2 -53.762349065447779 -8 -19.756955728506185 0 1 -0 -0 -0 -1 -1 0 -0 4
8 0 22.592875954247166
1 -65.428571428571431 -8 8.8817841970012523e-16 0.65079137345596849 -0 -0.75925660236529668 
1 -66 -8 0 1 -0 -0 
1 -56 -8 0 -0 -0 1 
1 -31.01835791367871 -8 23 -1 -0 -0 
2 -55 -8 29 0 -1 0 0 -0 -1 1 -0 -0 6
1 -49 -8 22.892528195418965 -0 -0 -1 
2 -55 -8 59 -0 -1 -0 1 -0 -0 -0 -0 1 6
1 -23.01835791367871 -8 65 1 -0 -0 
1 -56 -8 0 -0 -0 1 
1 -66 -8 70 1 -0 -0 
1 56 -8 0 -0 -0 1 
2 51 -8 60 -0 -1 -0 1 -0 -0 -0 -0 1 6
1 29.98164208632129 -8 66 1 -0 -0 
2 29 -8 60 0 -1 0 -0 -0 1 -1 -0 0 6
1 23 -8 44.392528195418961 -0 -0 1 
2 29 -8 38 0 -1 0 0 -0 -1 1 -0 -0 6
1 12.98164208632129 -8 32 -1 -0 -0 
2 51 -8 38 0 -1 0 0 -0 -1 1 -0 -0 6
1 56 -8 0 -0 -0 1 
2 54.700000000000003 -8 2.1000000000000001 0 1 0 -0 -0 1 1 -0 -0 8
1 56 -8 0 1 -0 -0 
1 66 -8 0 1 -0 -0 
1 74 -8 -30 -0 -0 1 
8 0.78539816339744772 1.5707963267948974
2 70 -8 -28.343145750507627 0 -1 0 0 -0 -1 1 -0 -0 4
1 62 -8 -42 0.70710678118654757 -0 0.70710678118654757 
8 0 0.78539816339744828
2 60.343145750507631 -8 -38 0 -1 0 0 -0 -1 1 -0 -0 4
2 -24.699999999999999 -8 42.299999999999997 0 1 -0 1 -0 -0 -0 -0 -1 3.2999999999999998
2 2.1000000000000001 -8 55 0 1 -0 1 -0 -0 -0 -0 -1 3.2999999999999998
2 0 -8 0 0 1 -0 1 -0 -0 -0 -0 -1 30
2 54.700000000000003 -8 2.1000000000000001 0 1 -0 1 -0 -0 -0 -0 -1 3.2999999999999998
2 41.799999999999997 -8 -24.600000000000001 0 1 -0 1 -0 -0 -0 -0 -1 3.2999999999999998
1 63.171572875253823 -16 -40.828427124746192 -0 1 -0 
1 -49.816773370119208 -16 -19.099359779284757 -0 1 -0 
1 72.828427124746185 -16 -31.171572875253819 -0 1 -0 
1 -50.725322655986595 -16 -17.153790234682312 -0 1 -0 
1 74 -16 -28.343145750507627 -0 1 -0 
1 -73.037026409461191 -16 8.8765308110380658 -0 1 -0 
8 0 11.691081491270785
1 -65.428571428571431 -8 8.8817841970012523e-16 -0.65079137345596805 -0 0.75925660236529702 
1 74 -16 76 -0 1 -0 
1 74 -8 0 -0 -0 1 
1 74 72 80 -0 -0.70710678118654757 -0.70710678118654757 
1 74 72 80 -0 -1 -0 
1 74 -8 80 -0 1 -0 
1 74 -12 80 -0 -0 1 
1 74 68 80 -0 -0 1 
1 74 72 88 -0 -1 -0 
2 74 9.9999999999999911 43.656854249492362 -1 0 0 -0 -1 -0 -0 -0 1 4
1 74 0.5 28.5 -0 -0.70710678118654757 -0.70710678118654757 
2 74 28.343145750507624 62 -1 0 0 -0 -0 1 0 1 -0 4
1 74 -5 66 -0 1 -0 
2 74 10 62 -1 0 0 -0 -1 -0 -0 -0 1 4
1 74 6 2 -0 -0 1 
1 -74 -16 11.479696304861939 -0 1 -0 
8 4.7123889803846906 5.4210152525123592
2 -70 -8 11.479696304861939 0 -1 0 0 -0 -1 1 -0 -0 4
1 70 -16 80 -0 1 -0 
8 1.5707963267948966 3.1415926535897931
2 70 -8 76 0 -1 0 0 -0 -1 1 -0 -0 4
1 -74 -16 76 -0 1 -0 
1 -74 -8 0 -0 -0 1 
1 -74 -8 0 -0 -0 1 
1 -74 -16 80 -0 1 -0 
1 -74 72 80 -0 -0.70710678118654757 -0.70710678118654757 
1 -74 -12 80 -0 -0 1 
1 -74 -8 80 -0 1 -0 
1 -74 -16 88 -0 1 -0 
1 -74 68 80 -0 -0 1 
2 -74 10 62 -1 0 0 -0 -1 -0 -0 -0 1 4
1 -74 -5 66 -0 -1 -0 
2 -74 28.343145750507624 62 -1 0 0 -0 -0 1 0 1 -0 4
1 -74 28.000000000000004 56 -0 0.70710678118654757 0.70710678118654757 
2 -74 9.9999999999999911 43.656854249492362 -1 0 0 -0 -1 -0 -0 -0 1 4
1 -74 6 57 -0 -0 -1 
8 1.5707963267948966 3.1415926535897931
2 70 -12 80 -0 -0 -1 -0 1 -0 1 -0 -0 4
8 1.5707963267948966 3.1415926535897931
2 70 -12 88 -0 -0 -1 -0 1 -0 1 -0 -0 4
1 -70 -16 80 -0 1 -0 
8 3.1415926535897931 4.7123889803846897
2 -70 -8 76 0 -1 0 0 -0 -1 1 -0 -0 4
1 -74 72 88 1 -0 -0 
8 0 1.5707963267948966
2 -70 68 88 -0 0 1 -0 1 -0 -1 -0 -0 4
8 0 1.5707963267948966
2 70 68 88 -0 -0 -1 -0 1 -0 1 -0 -0 4
8 3.1415926535897931 4.7123889803846897
2 -70 -12 88 -0 -0 -1 -0 1 -0 1 -0 -0 4
2 -46 56 88 0 0 1 1 -0 -0 -0 1 -0 4.25
2 46 56 88 0 0 1 1 -0 -0 -0 1 -0 4.25
2 -46 14 88 0 0 1 1 -0 -0 -0 1 -0 4.25
2 29 51 88 -0 -0 -1 -0 1 -0 1 -0 -0 6
1 35 42.5 88 -0 1 -0 
2 29 17 88 0 0 -1 1 -0 -0 -0 -1 -0 6
1 17.5 11 88 1 -0 -0 
2 -29 17 88 -0 0 -1 -0 -1 -0 -1 -0 0 6
1 -35 19.5 88 -0 -1 -0 
2 -29 51 88 -0 -0 -1 -0 1 -0 1 -0 -0 6
1 -17.5 57 88 -1 -0 -0 
2 46 14 88 0 0 1 1 -0 -0 -0 1 -0 4.25
8 3.1415926535897931 4.7123889803846897
2 -70 -12 80 -0 -0 -1 -0 1 -0 1 -0 -0 4
1 -55 -16 23 -0 1 -0 
2 -56 1.9999999999999982 23 0 -0 -1 -1 -0 0 -0 1 -0 10
1 -59 -16 23 -0 1 -0 
7 0 0  5 6 2  -59 -7.539392014169457 23  -59.288719577035728 -7.4485939077680614 23  -59.570552797134056 -7.3479580869351384 23.01736657972333  -59.843809274089537 -7.2385906433972513 23.050442090691877  -60.107017980110406 -7.1219915611812796 23.097340754512583  -60.358900182385426 -6.9999993999999992 23.155909797555069 
 0 6 1 6
8 0 1.5707963267948966
2 -59 -7 29 0 1 -0 -0 -0 -1 -1 0 -0 6
1 -65 -16 29 -0 1 -0 
1 -49 -16 29 -0 1 -0 
1 -65 -16 59 -0 1 -0 
1 -65 -7 65 -0 -0 -1 
1 -49 -16 59 -0 1 -0 
1 -59 -16 65 -0 1 -0 
7 0 0  5 6 2  -59 -7.539392014169457 65  -59.288719577035749 -7.4485939077680543 65  -59.570552797134106 -7.3479580869351198 64.98263342027667  -59.843809274089431 -7.2385906433972957 64.94955790930814  -60.10701798011047 -7.1219915611812503 64.902659245487399  -60.358900182385433 -6.9999993999999974 64.844090202444931 
 0 6 1 6
8 3.1415926535897931 4.7123889803846897
2 -59 -7 59 0 -1 0 0 -0 -1 1 -0 -0 6
1 -55 -16 65 -0 1 -0 
2 -56 1.9999999999999982 65 0 -0 -1 -1 -0 0 -0 1 -0 10
1 -21.399999999999999 -16 42.299999999999997 -0 1 -0 
1 5.4000000000000004 -16 55 -0 1 -0 
1 51 -16 32 -0 1 -0 
1 29 -16 32 -0 1 -0 
7 0 0  7 8 2  56 -8 34.683375209644595  56.292775622485856 -8 35.124751067621105  56.532193977050987 -7.9900000105465647 35.584367215258901  56.720789865842981 -7.9765581012863063 36.056463906848812  56.860717634227591 -7.9638713499295841 36.536917960592774  56.953528018170843 -7.9545453182253878 37.022644721839264  57 -7.9498743710662003 37.511122864551417  57 -7.9498743710662003 38 
 0 8 1 8
1 57 -16 38 -0 1 -0 
1 57 -16 60 -0 1 -0 
1 57 -7.9498743710662012 -100 -0 -0 1 
7 0 0  7 8 2  57 -7.9498743710662003 60  57 -7.9498743710662003 60.488877136851357  56.953528017898236 -7.954545318249127 60.977355276709623  56.860717634907196 -7.9638713498763787 61.463082035238159  56.720789867493892 -7.9765581010705926 61.943536089693076  56.532193977769644 -7.9900000107010953 62.415632785213887  56.292775620163539 -8 62.875248935879917  56 -8 63.316624790355405 
 0 8 1 8
1 51 -16 66 -0 1 -0 
1 29 -16 66 -0 1 -0 
1 23 -16 60 -0 1 -0 
1 23 -16 38 -0 1 -0 
1 30 -16 0 -0 1 -0 
1 58 -16 2.1000000000000001 -0 1 -0 
1 45.099999999999994 -16 -24.600000000000001 -0 1 -0 
1 -66 2 0 -0 -1 -0 
1 -66 -8 0 1 -0 -0 
2 -56 1.9999999999999982 0 0 -0 -1 -1 -0 0 -0 1 -0 10
1 -66 2 0 -0 -0 1 
8 0 69.999999999999972
1 -66 2 80 0 2.0301221021717157e-16 -1 
2 -56 2 70 0 0 -1 -1 -0 -0 -0 1 0 10
1 -60.35889894354068 -7 -100 -0 -0 1 
2 -56 2 70 -1 0 -6.123233995736766e-17 -6.123233995736766e-17 -0 1 -0 1 0 10
8 0 122
1 66 2 80 -1 -0 -0 
2 56 2 70 -1 0 6.123233995736766e-17 6.123233995736766e-17 -0 1 -0 1 -0 10
1 66 2 0 -0 -0 1 
8 0 69.999999999999972
1 66 2.0000000000000142 10.000000000000028 -0 -2.0301221021717157e-16 1 
2 56 2 70 0 0 1 1 -0 -0 -0 1 -0 10
7 0 0  6 37 8  56 -8 9.993668348746354  56.415766407862755 -8 9.9251962130621347  56.820635949997005 -7.9792563865382995 9.8315272848894253  57.211797945833517 -7.9398093054093444 9.7147243984877623  57.586669244291087 -7.884215875613771 9.5774213373046457  57.942931290773835 -7.8154900988488514 9.4228571468795082  58.470624623041552 -7.6920026715105463 9.1589303814614507  58.656486301797521 -7.6437142199153953 9.058238384341978  58.836248525411371 -7.5925380734407559 8.9533304376816556  59.010013039055686 -7.5388956900614597 8.8445878328625422  59.177897047537265 -7.4831724254499363 8.7323489473267504  59.464723988968579 -7.3815344082481866 8.528128427545683  59.586031582132584 -7.3363209343790556 8.4374432431601445  59.704030803863787 -7.2902310912920107 8.3449738651945946  59.818796797039703 -7.2434062972024256 8.2508257839066683  59.930404652682363 -7.195976983324357 8.1550889803254716  60.328536906068614 -7.0201989920005898 7.7983152609043884  60.596318601201403 -6.8888250557456248 7.5278922593630027  60.84348708377663 -6.7562937405838843 7.248119141418127  61.071158036265764 -6.6245570151369861 6.9599559067753205  61.280250503950619 -6.4953573979003529 6.6638950078544665  61.678470641398533 -6.2350578334733919 6.0309256314909288  61.864561864351153 -6.1046432562723814 5.6925356589247347  62.029971084448583 -5.9816699990105144 5.3458021223587071  62.174843204098771 -5.868585095903037 4.9913834021242902  62.299155342334934 -5.7678036767946335 4.6297156978224905  62.50087690103706 -5.5996690998831493 3.9107186787628967  62.580392317696145 -5.5308357611507581 3.553790056833559  62.640325767890253 -5.4774749762926147 3.1921713347203702  62.680357149080137 -5.441339085683774 2.8274118596831652  62.700287211259045 -5.4233517658082526 2.4608341553594433  62.699717887501123 -5.4238655948080368 1.7393151371479554  62.680601856246078 -5.4411182415492032 1.385469856370664  62.642751363707276 -5.4752735532949295 1.0332970582334693  62.586345958215048 -5.5255127371741075 0.6840053576050924  62.511677040800045 -5.590291714576499 0.33899833840743243  62.419455776154152 -5.6675020402997589 -5.9999999857396347e-07 
 0 7 0.14631945240916919 5 0.23003918042555743 5 0.29442416571277413 5 0.46624094599554899 5 0.65239265776527344 5 0.82927347418588349 5 1 7
2 56 1.9999999999999982 0 0 0 -1 1 -0 -0 -0 -1 -0 10
1 62.419455939378111 192 0 -0 -1 -0 
1 66 2 0 -0 -1 -0 
1 -74 72 80 1 -0 -0 
1 66 72 80 1 -0 -0 
1 66 72 80 -0 -0.70710678118654757 -0.70710678118654757 
1 66 72 80 -0 -0.70710678118654757 -0.70710678118654757 
1 66 72 80 -0 -0.70710678118654757 -0.70710678118654757 
1 -74 -8 0 1 -0 -0 
1 66 -8 80 1 -0 -0 
8 0 1.5707963267948966
2 70 68 80 -0 -0 -1 -0 1 -0 1 -0 -0 4
1 70 72 80 -0 -0 1 
1 65 5.9999999999999911 43.656854249492362 1 -0 -0 
1 65 12.828427124746181 40.82842712474617 1 -0 -0 
2 66 9.9999999999999911 43.656854249492362 -1 0 0 -0 -1 -0 -0 -0 1 4
1 66 30 58 -0 0.70710678118654757 0.70710678118654757 
1 65 31.171572875253815 59.171572875253808 1 -0 -0 
1 65 28.343145750507624 66 1 -0 -0 
2 66 28.343145750507624 62 -1 0 0 -0 -0 1 0 1 -0 4
1 66 13.142135623730951 66 -0 -1 -0 
1 65 10 66 1 -0 -0 
1 65 6 62 1 -0 -0 
2 66 10 62 -1 0 0 -0 -1 -0 -0 -0 1 4
1 66 6 42.857864376269049 -0 -0 -1 
1 -74 -8 80 1 -0 -0 
1 -74 72 80 1 -0 -0 
1 -74 72 80 1 -0 -0 
1 -66 72 80 -0 -0.70710678118654757 -0.70710678118654757 
1 -66 72 80 -0 -0.70710678118654757 -0.70710678118654757 
1 -66 72 80 -0 -0.70710678118654757 -0.70710678118654757 
8 0 1.5707963267948966
2 -70 68 80 -0 0 1 -0 1 -0 -1 -0 -0 4
1 -70 72 80 -0 -0 1 
1 -75 6 62 1 -0 -0 
2 -66 10 62 -1 0 0 -0 -1 -0 -0 -0 1 4
1 -75 10 66 1 -0 -0 
1 -75 28.343145750507624 66 1 -0 -0 
1 -66 13.142135623730951 66 -0 -1 -0 
2 -66 28.343145750507624 62 -1 0 0 -0 -0 1 0 1 -0 4
1 -75 31.171572875253815 59.171572875253808 1 -0 -0 
1 -75 12.828427124746181 40.82842712474617 1 -0 -0 
1 -66 30 58 -0 0.70710678118654757 0.70710678118654757 
1 -75 5.9999999999999911 43.656854249492362 1 -0 -0 
2 -66 9.9999999999999911 43.656854249492362 -1 0 0 -0 -1 -0 -0 -0 1 4
1 -66 6 42.857864376269049 -0 -0 -1 
1 -66 72 70 -0 -0 1 
2 -56 72 70 -0 1 0 -1 -0 -0 -0 -0 1 10
1 -74 72 80 1 -0 -0 
2 56 72 70 0 1 -0 1 -0 -0 -0 -0 -1 10
1 66 72 70 -0 -0 1 
2 -46 56 80 0 0 1 1 -0 -0 -0 1 -0 4.25
1 -41.75 56 79 -0 -0 1 
2 46 56 80 0 0 1 1 -0 -0 -0 1 -0 4.25
1 50.25 56 79 -0 -0 1 
2 -46 14 80 0 0 1 1 -0 -0 -0 1 -0 4.25
1 -41.75 14 79 -0 -0 1 
1 29 57 79 -0 -0 1 
1 35 51 79 -0 -0 1 
2 29 51 80 -0 -0 -1 -0 1 -0 1 -0 -0 6
1 35 42.5 80 -0 1 -0 
1 35 17 79 -0 -0 1 
1 29 11 79 -0 -0 1 
2 29 17 80 0 0 -1 1 -0 -0 -0 -1 -0 6
1 17.5 11 80 1 -0 -0 
1 -29 11 79 -0 -0 1 
1 -35 17 79 -0 -0 1 
2 -29 17 80 -0 0 -1 -0 -1 -0 -1 -0 0 6
1 -35 19.5 80 -0 -1 -0 
1 -35 51 79 -0 -0 1 
1 -29 57 79 -0 -0 1 
2 -29 51 80 -0 -0 -1 -0 1 -0 1 -0 -0 6
1 -17.5 57 80 -1 -0 -0 
2 46 14 80 0 0 1 1 -0 -0 -0 1 -0 4.25
1 50.25 14 79 -0 -0 1 
1 -66 72 70 -0 -1 -0 
2 -56 2 70 -0 1 0 -1 -0 -0 -0 -0 1 10
1 56 72 80 -0 -1 -0 
1 -56 72 80 -0 -1 -0 
2 56 2 70 -0 -1 -0 1 -0 -0 -0 -0 1 10
1 66 72 70 -0 -1 -0 
1 66 72 70 -0 -1 -0 
1 -66 72 70 -0 -1 -0 
Polygon3D 0
PolygonOnTriangulations 0
Surfaces 93
1 -46 -16 -42 -0 -0 1 1 -0 -0 -0 -1 -0 
2 -42.611491646467854 -16 -38 -0 1 -0 0 -0 -1 -1 0 -0 4
2 60.343145750507631 -16 -38 -0 1 -0 0 -0 -1 1 -0 -0 4
1 2.96328417264258 -16 22.78505639083793 -0 1 -0 -0 -0 -1 1 -0 -0 
2 -53.762349065447779 -16 -19.756955728506185 -0 1 -0 0.75925660236529657 -0 0.65079137345596849 0.65079137345596849 -0 -0.75925660236529657 4
2 70 -16 -28.343145750507627 -0 1 -0 0.70710678118654757 -0 -0.70710678118654757 0.70710678118654757 -0 0.70710678118654757 4
2 -70 -16 11.479696304861939 -0 1 -0 -1 -0 0 0 -0 -1 4
2 70 -16 76 -0 1 -0 1 -0 -0 -0 -0 1 4
2 70 -12 80 -0 -0 1 1 -0 -0 -0 -1 -0 4
2 -70 -16 76 -0 1 -0 -0 -0 1 -1 -0 0 4
2 -70 -12 80 -0 -0 1 -0 -1 -0 -1 -0 0 4
2 -59 -16 29 -0 1 -0 0 -0 -1 -1 0 -0 6
2 -55 -16 29 -0 1 -0 0 -0 -1 1 -0 -0 6
2 -59 -16 59 -0 1 -0 -0 -0 1 -1 -0 0 6
2 -55 -16 59 -0 1 -0 1 -0 -0 -0 -0 1 6
2 -24.699999999999999 -16 42.299999999999997 -0 -1 -0 1 -0 -0 -0 -0 1 3.2999999999999998
2 2.1000000000000001 -16 55 -0 -1 -0 1 -0 -0 -0 -0 1 3.2999999999999998
2 51 -16 38 -0 1 -0 0 -0 -1 1 -0 -0 6
2 51 -16 60 -0 1 -0 1 -0 -0 -0 -0 1 6
2 29 -16 60 -0 1 -0 -0 -0 1 -1 -0 0 6
2 29 -16 38 -0 1 -0 0 -0 -1 -1 0 -0 6
2 0 -16 0 -0 -1 -0 1 -0 -0 -0 -0 1 30
2 54.700000000000003 -16 2.1000000000000001 -0 -1 -0 1 -0 -0 -0 -0 1 3.2999999999999998
2 41.799999999999997 -16 -24.600000000000001 -0 -1 -0 1 -0 -0 -0 -0 1 3.2999999999999998
1 -50 -16 -18 0.98639392383214375 -0 0.16439898730535729 0.16439898730535729 -0 -0.98639392383214375 -0 -1 -0 
1 2.96328417264258 -8 22.78505639083793 -0 1 -0 -0 -0 -1 1 -0 -0 
2 -56 1.9999999999999982 -100 -0 -0 1 -1 -0 0 -0 -1 -0 10
2 -66 1.9999999999999982 70 1 -0 -0 -0 -1 -0 -0 -0 1 10
2 56 1.9999999999999982 -100 -0 -0 1 1 -0 -0 -0 -1 -0 10
2 54.700000000000003 192 2.1000000000000001 -0 -1 -0 -0 -0 1 1 -0 -0 8
1 62 -16 -42 -0.70710678118654757 -0 0.70710678118654757 0.70710678118654757 -0 0.70710678118654757 -0 -1 -0 
1 -74 -16 10 0.75925660236529657 -0 0.65079137345596849 0.65079137345596849 -0 -0.75925660236529657 -0 -1 -0 
1 74 -16 -30 -1 -0 -0 -0 -0 1 -0 -1 -0 
2 70 68 80 -0 -0 1 -0 1 -0 1 -0 -0 4
2 65 9.9999999999999911 43.656854249492362 1 -0 -0 -0 -1 -0 -0 -0 -1 4
2 65 28.343145750507624 62 1 -0 -0 -0 -0 1 0 1 -0 4
2 65 10 62 1 -0 -0 -0 -1 -0 -0 -0 1 4
1 -74 -16 80 1 -0 -0 -0 -0 -1 -0 -1 -0 
2 -70 68 80 -0 -0 1 -0 1 -0 -1 -0 0 4
2 -75 10 62 1 -0 -0 -0 -1 -0 -0 -0 1 4
2 -75 28.343145750507624 62 1 -0 -0 -0 -0 1 0 1 -0 4
2 -75 9.9999999999999911 43.656854249492362 1 -0 -0 -0 -1 -0 -0 -0 -1 4
1 0 28 88 -0 -0 1 1 -0 -0 -0 -1 -0 
2 -46 56 79 -0 0 -1 1 -0 -0 -0 -1 -0 4.25
2 46 56 79 -0 0 -1 1 -0 -0 -0 -1 -0 4.25
2 -46 14 79 -0 0 -1 1 -0 -0 -0 -1 -0 4.25
2 29 51 79 -0 -0 1 -0 1 -0 1 -0 -0 6
2 29 17 79 -0 -0 1 1 -0 -0 -0 -1 -0 6
2 -29 17 79 -0 -0 1 -0 -1 -0 -1 -0 0 6
2 -29 51 79 -0 -0 1 -0 1 -0 -1 -0 0 6
2 46 14 79 -0 0 -1 1 -0 -0 -0 -1 -0 4.25
1 -65 -16 23 -0 -0 1 1 -0 -0 -0 -1 -0 
1 -65 -16 65 1 -0 -0 -0 -0 -1 -0 -1 -0 
1 -49 -16 23 -1 -0 -0 -0 -0 1 -0 -1 -0 
1 -49 -16 65 -0 0 -1 -1 -0 -0 -0 -1 -0 
1 23 -16 32 -0 -0 1 1 -0 -0 -0 -1 -0 
1 57 -16 32 -1 -0 -0 -0 -0 1 -0 -1 -0 
1 57 -16 66 -0 0 -1 -1 -0 -0 -0 -1 -0 
1 23 -16 66 1 -0 -0 -0 -0 -1 -0 -1 -0 
1 -66 2 0 -0 -0 1 1 -0 -0 -0 -1 -0 
4 -56 2 70 -0 1 -0 -1 -0 -0 -0 -0 1 10
4 56 2 70 -0 1 -0 1 -0 -0 -0 -0 1 10
1 56 2 0 -0 -0 1 1 -0 -0 -0 -1 -0 
1 66 72 80 -0 -0.70710678118654757 0.70710678118654757 -0 -0.70710678118654757 -0.70710678118654757 -1 -0 -0 
1 -74 -8 0 -0 1 -0 -0 -0 1 -1 -0 -0 
1 66 -8 0 -0 1 -0 -0 -0 1 -1 -0 -0 
1 0 28 80 -0 -0 1 1 -0 -0 -0 -1 -0 
1 66 -8 80 -0 -0 -1 -0 1 -0 -1 0 -0 
1 65 6 34 -0 1 -0 -0 -0 1 -1 -0 -0 
1 65 38 66 -0 -0.70710678118654757 0.70710678118654757 -0 -0.70710678118654757 -0.70710678118654757 -1 -0 -0 
1 65 6 66 -0 -0 -1 -0 1 -0 -1 0 -0 
1 -74 -8 0 -0 1 -0 -0 -0 1 -1 -0 -0 
1 0 28 80 -0 -0 1 1 -0 -0 -0 -1 -0 
1 -74 72 80 -0 -0.70710678118654757 0.70710678118654757 -0 -0.70710678118654757 -0.70710678118654757 -1 -0 -0 
1 -74 -8 80 -0 -0 -1 -0 1 -0 -1 0 -0 
1 -75 6 34 -0 1 -0 -0 -0 1 -1 -0 -0 
1 -75 6 66 -0 -0 -1 -0 1 -0 -1 0 -0 
1 -75 38 66 -0 -0.70710678118654757 0.70710678118654757 -0 -0.70710678118654757 -0.70710678118654757 -1 -0 -0 
1 -74 72 80 -0 -1 -0 1 -0 -0 -0 -0 -1 
2 -56 172 70 -0 -1 -0 -1 -0 -0 -0 -0 1 10
2 56 172 70 -0 -1 -0 1 -0 -0 -0 -0 1 10
1 -35 57 79 -0 -1 -0 1 -0 -0 -0 -0 -1 
1 35 57 79 -1 -0 -0 -0 -1 -0 -0 -0 -1 
1 35 11 79 -0 1 -0 -1 -0 -0 -0 0 -1 
1 -35 11 79 1 -0 -0 -0 1 -0 0 -0 -1 
1 -57 -7 44 -0 1 -0 -0 -0 -1 1 -0 -0 
1 -66 2 0 1 -0 -0 -0 -0 1 -0 1 -0 
1 -66 20.284271247461902 51.715728752538098 1 -0 -0 -0 -0 1 -0 1 -0 
1 0 28 80 -0 -0 1 1 -0 -0 -0 -1 -0 
1 66 2 0 1 -0 -0 -0 -0 1 -0 1 -0 
1 66 20.284271247461902 51.715728752538098 1 -0 -0 -0 -0 1 -0 1 -0 
1 66 72 70 1 -0 -0 -0 -0 1 -0 1 -0 
1 -66 72 70 1 -0 -0 -0 -0 1 -0 1 -0 
Triangulations 0

TShapes 648
Ve
1e-07
-42.6114916464679 -16 -42
0 0

0101101
*
Ve
1e-07
60.3431457505076 -16 -42
0 0

0101101
*
Ed
 1e-07 1 1 0
1  1 0 3.38850835353215 106.343145750508
0

0101000
+648 0 -647 0 *
Ve
1e-07
-42.6114916464679 -8 -42
0 0

0101101
*
Ed
 1e-07 1 1 0
1  2 0 0 8
2  1 2 0 0 8
4 G1 1 0 2 0
0

0101000
+648 0 -645 0 *
Ve
1e-07
60.3431457505076 -8 -42
0 0

0101101
*
Ed
 1e-07 1 1 0
1  3 0 0 102.954637396975
0

0101000
+643 0 -645 0 *
Ed
 1e-07 1 1 0
1  4 0 0 8
2  2 3 0 0 8
4 G1 1 0 3 0
0

0101000
+647 0 -643 0 *
Wi

0101100
-646 0 +644 0 -642 0 -641 0 *
Fa
0  1e-07 1 0

0111000
+640 0 *
Ve
1e-07
-46.5570673417964 -16 -38.6575959492214
0 0

0101101
*
Ed
 1e-07 1 1 0
1  5 0 0 1.40564764938027
2  3 2 0 0 1.40564764938027
0

0101000
+648 0 -638 0 *
Ve
1e-07
63.1715728752538 -16 -40.8284271247462
0 0

0101101
*
Ed
 1e-07 1 1 0
1  6 0 0 0.785398163397448
2  4 3 0 0 0.785398163397448
0

0101000
+647 0 -636 0 *
Ve
1e-07
-49.8167733701192 -16 -19.0993597792848
0 0

0101101
*
Ed
 1e-07 1 1 0
1  7 0 1.11452407879171 20.9425417676607
0

0101000
+634 0 -638 0 *
Ve
1e-07
72.8284271247462 -16 -31.1715728752538
0 0

0101101
*
Ed
 1e-07 1 1 0
1  8 0 1.65685424949239 15.3137084989847
0

0101000
+636 0 -632 0 *
Ve
1e-07
-50.7253226559866 -16 -17.1537902346823
0 0

0101101
*
Ed
 1e-07 1 1 0
1  9 0 4.00376270825702 4.54724030297006
2  5 5 0 4.00376270825702 4.54724030297006
0

0101000
+630 0 -634 0 *
Ve
1e-07
74 -16 -28.3431457505076
0 0

0101101
*
Ed
 1e-07 1 1 0
1  10 0 0.785398163397448 1.5707963267949
2  6 6 0 0.785398163397448 1.5707963267949
0

0101000
+632 0 -628 0 *
Ve
1e-07
-73.0370264094612 -16 8.87653081103807
0 0

0101101
*
Ed
 1e-07 1 1 0
1  11 0 1.47969630486191 35.7636537503799
0

0101000
+626 0 -630 0 *
Ve
1e-07
74 -16 76
0 0

0101101
*
Ed
 1e-07 1 1 0
1  12 0 1.65685424949237 106
0

0101000
+628 0 -624 0 *
Ve
1e-07
-74 -16 11.4796963048619
0 0

0101101
*
Ed
 1e-07 1 1 0
1  13 0 4.71238898038469 5.42101525251236
2  7 7 0 4.71238898038469 5.42101525251236
0

0101000
+622 0 -626 0 *
Ve
1e-07
70 -16 80
0 0

0101101
*
Ed
 1e-07 1 1 0
1  14 0 1.5707963267949 3.14159265358979
2  8 8 0 1.5707963267949 3.14159265358979
0

0101000
+624 0 -620 0 *
Ve
1e-07
-74 -16 76
0 0

0101101
*
Ed
 1e-07 1 1 0
1  15 0 4 68.5203036951381
0

0101000
+618 0 -622 0 *
Ve
1e-07
70 -16 88
0 0

0101101
*
Ed
 1e-07 1 1 0
1  16 0 -0 8
2  9 9 0 -0 8
0

0101000
+620 0 -616 0 *
Ve
1e-07
-70 -16 80
0 0

0101101
*
Ed
 1e-07 1 1 0
1  17 0 3.14159265358979 4.71238898038469
2  10 10 0 3.14159265358979 4.71238898038469
0

0101000
+614 0 -618 0 *
Ve
1e-07
-70 -16 88
0 0

0101101
*
Ed
 1e-07 1 1 0
1  18 0 4 144
0

0101000
+616 0 -612 0 *
Ed
 1e-07 1 1 0
1  19 0 -0 8
2  11 11 0 -0 8
0

0101000
+614 0 -612 0 *
Wi

0101100
+646 0 -637 0 +635 0 +633 0 +631 0 +629 0 +627 0 +625 0 +623 0 +621 0 
+619 0 +617 0 +615 0 +613 0 +611 0 -610 0 *
Ve
1e-07
-59 -16 23
0 0

0101101
*
Ve
1e-07
-55 -16 23
0 0

0101101
*
Ed
 1e-07 1 1 0
1  20 0 6 10
0

0101000
+608 0 -607 0 *
Ve
1e-07
-65 -16 29
0 0

0101101
*
Ed
 1e-07 1 1 0
1  21 0 0 1.5707963267949
2  12 12 0 0 1.5707963267949
0

0101000
+608 0 -605 0 *
Ve
1e-07
-49 -16 29
0 0

0101101
*
Ed
 1e-07 1 1 0
1  22 0 0 1.5707963267949
2  13 13 0 0 1.5707963267949
0

0101000
+607 0 -603 0 *
Ve
1e-07
-65 -16 59
0 0

0101101
*
Ed
 1e-07 1 1 0
1  23 0 6 36
0

0101000
+601 0 -605 0 *
Ve
1e-07
-49 -16 59
0 0

0101101
*
Ed
 1e-07 1 1 0
1  24 0 6 36
0

0101000
+603 0 -599 0 *
Ve
1e-07
-59 -16 65
0 0

0101101
*
Ed
 1e-07 1 1 0
1  25 0 3.14159265358979 4.71238898038469
2  14 14 0 3.14159265358979 4.71238898038469
0

0101000
+597 0 -601 0 *
Ve
1e-07
-55 -16 65
0 0

0101101
*
Ed
 1e-07 1 1 0
1  26 0 1.5707963267949 3.14159265358979
2  15 15 0 1.5707963267949 3.14159265358979
0

0101000
+599 0 -595 0 *
Ed
 1e-07 1 1 0
1  27 0 6 10
0

0101000
+595 0 -597 0 *
Wi

0101100
-606 0 +604 0 -602 0 -600 0 -598 0 -596 0 -594 0 -593 0 *
Ve
1e-07
-21.4 -16 42.3
0 0

0101101
*
Ed
 1e-07 1 1 0
1  28 0 0 6.28318530717959
2  16 16 0 0 6.28318530717959
0

0101000
+591 0 -591 0 *
Wi

0101100
-590 0 *
Ve
1e-07
5.4 -16 55
0 0

0101101
*
Ed
 1e-07 1 1 0
1  29 0 0 6.28318530717959
2  17 17 0 0 6.28318530717959
0

0101000
+588 0 -588 0 *
Wi

0101100
-587 0 *
Ve
1e-07
29 -16 32
0 0

0101101
*
Ve
1e-07
51 -16 32
0 0

0101101
*
Ed
 1e-07 1 1 0
1  30 0 6 28
0

0101000
+585 0 -584 0 *
Ve
1e-07
57 -16 38
0 0

0101101
*
Ed
 1e-07 1 1 0
1  31 0 0 1.5707963267949
2  18 18 0 0 1.5707963267949
0

0101000
+584 0 -582 0 *
Ve
1e-07
57 -16 60
0 0

0101101
*
Ed
 1e-07 1 1 0
1  32 0 6 28
0

0101000
+582 0 -580 0 *
Ve
1e-07
51 -16 66
0 0

0101101
*
Ed
 1e-07 1 1 0
1  33 0 1.5707963267949 3.14159265358979
2  19 19 0 1.5707963267949 3.14159265358979
0

0101000
+580 0 -578 0 *
Ve
1e-07
29 -16 66
0 0

0101101
*
Ed
 1e-07 1 1 0
1  34 0 6 28
0

0101000
+578 0 -576 0 *
Ve
1e-07
23 -16 60
0 0

0101101
*
Ed
 1e-07 1 1 0
1  35 0 3.14159265358979 4.71238898038469
2  20 20 0 3.14159265358979 4.71238898038469
0

0101000
+576 0 -574 0 *
Ve
1e-07
23 -16 38
0 0

0101101
*
Ed
 1e-07 1 1 0
1  36 0 6 28
0

0101000
+574 0 -572 0 *
Ed
 1e-07 1 1 0
1  37 0 0 1.5707963267949
2  21 21 0 0 1.5707963267949
0

0101000
+585 0 -572 0 *
Wi

0101100
-583 0 -581 0 -579 0 -577 0 -575 0 -573 0 -571 0 +570 0 *
Ve
1e-07
30 -16 0
0 0

0101101
*
Ed
 1e-07 1 1 0
1  38 0 0 6.28318530717959
2  22 22 0 0 6.28318530717959
0

0101000
+568 0 -568 0 *
Wi

0101100
-567 0 *
Ve
1e-07
58 -16 2.1
0 0

0101101
*
Ed
 1e-07 1 1 0
1  39 0 0 6.28318530717959
2  23 23 0 0 6.28318530717959
0

0101000
+565 0 -565 0 *
Wi

0101100
-564 0 *
Ve
1e-07
45.1 -16 -24.6
0 0

0101101
*
Ed
 1e-07 1 1 0
1  40 0 0 6.28318530717959
2  24 24 0 0 6.28318530717959
0

0101000
+562 0 -562 0 *
Wi

0101100
-561 0 *
Fa
0  1e-07 4 0

0101000
+609 0 +592 0 +589 0 +586 0 +569 0 +566 0 +563 0 +560 0 *
Ve
1e-07
-46.5570673417964 -8 -38.6575959492214
0 0

0101101
*
Ed
 1e-07 1 1 0
1  41 0 -0 8
2  25 2 0 -0 8
4 G1 2 0 25 0
0

0101000
+638 0 -558 0 *
Ed
 1e-07 1 1 0
1  42 0 0 1.40564764938027
2  26 2 0 0 1.40564764938027
0

0101000
+645 0 -558 0 *
Wi

0101100
+637 0 -644 0 +557 0 -556 0 *
Fa
0  1e-07 2 0

0101000
+555 0 *
Ve
1e-07
-49.8167733701192 -8 -19.0993597792848
0 0

0101101
*
Ed
 1e-07 1 1 0
1  43 0 1.11452407879171 20.9425417676607
0

0101000
+553 0 -558 0 *
Ve
1e-07
-50.7253226559866 -8 -17.1537902346823
0 0

0101101
*
Ed
 1e-07 1 1 0
1  44 0 4.00376270825702 4.54724030297006
2  27 5 0 4.00376270825702 4.54724030297006
0

0101000
+551 0 -553 0 *
Ve
1.00000000888178e-07
-65.4285714285714 -8 8.88178419700125e-16
0 0

0101101
*
Ed
 1e-07 1 1 0
1  45 0 0 22.5928759542472
0

0101000
+549 0 -551 0 *
Ve
1.50001e-07
-56 -8 0
0 0

0101101
*
Ed
 1e-07 1 1 0
1  46 0 0.571428571428569 10
0

0101000
+549 2 -547 2 *
Ve
1.5e-07
-56 -8 23
0 0

0101101
*
Ed
 1.00000014321447e-07 1 1 0
1  47 0 0 23
2  28 27 2 0 23
0

0101000
+547 2 -545 2 *
Ve
1.5e-07
-55 -8 23
0 0

0101101
*
Ed
 1.5e-07 1 1 0
1  48 0 23.9816420863213 24.9816420863213
0

0101000
+543 0 -545 0 *
Ve
1.5e-07
-49 -8 29
0 0

0101101
*
Ed
 1e-07 1 1 0
1  49 0 0 1.5707963267949
2  29 13 0 0 1.5707963267949
0

0101000
+543 0 -541 0 *
Ve
1.5e-07
-49 -8 59
0 0

0101101
*
Ed
 1.5e-07 1 1 0
1  50 0 -36.107471804581 -6.10747180458104
0

0101000
+539 0 -541 0 *
Ve
1.5e-07
-55 -8 65
0 0

0101101
*
Ed
 1e-07 1 1 0
1  51 0 0 1.5707963267949
2  30 15 0 0 1.5707963267949
0

0101000
+539 0 -537 0 *
Ve
1.5e-07
-56 -8 65
0 0

0101101
*
Ed
 1.5e-07 1 1 0
1  52 0 -32.9816420863213 -31.9816420863213
0

0101000
+535 0 -537 0 *
Ve
1.5e-07
-56 -8 70
0 0

0101101
*
Ed
 1.00000014321447e-07 1 1 0
1  53 0 65 70
2  28 27 2 65 70
0

0101000
+535 2 -533 2 *
Ve
1.5e-07
56 -8 70
0 0

0101101
*
Ed
 1.00000001776357e-07 1 1 0
1  54 0 10 122
2  31 28 4 10 122
0

0101000
+533 4 -531 4 *
Ve
1.00000014321447e-07
56 -8 63.3166247903554
0 0

0101101
*
Ed
 1.00000014321447e-07 1 1 0
1  55 0 63.3166247903554 70
2  32 29 6 63.3166247903554 70
0

0101000
+529 6 -531 6 *
Ve
1.5e-07
51 -8 66
0 0

0101101
*
Ed
 1e-07 1 1 0
1  56 0 0.585685543457151 1.5707963267949
2  33 19 0 0.585685543457151 1.5707963267949
0

0101000
+529 0 -527 0 *
Ve
1.5e-07
29 -8 66
0 0

0101101
*
Ed
 1.5e-07 1 1 0
1  57 0 -0.98164208632129 21.0183579136787
0

0101000
+525 0 -527 0 *
Ve
1.5e-07
23 -8 60
0 0

0101101
*
Ed
 1e-07 1 1 0
1  58 0 0 1.5707963267949
2  34 20 0 0 1.5707963267949
0

0101000
+525 0 -523 0 *
Ve
1.5e-07
23 -8 38
0 0

0101101
*
Ed
 1.5e-07 1 1 0
1  59 0 -6.39252819541896 15.607471804581
0

0101000
+521 0 -523 0 *
Ve
1.5e-07
29 -8 32
0 0

0101101
*
Ed
 1e-07 1 1 0
1  60 0 4.71238898038469 6.28318530717959
2  35 21 0 4.71238898038469 6.28318530717959
0

0101000
+521 0 -519 0 *
Ve
1.5e-07
51 -8 32
0 0

0101101
*
Ed
 1.5e-07 1 1 0
1  61 0 -38.0183579136787 -16.0183579136787
0

0101000
+517 0 -519 0 *
Ve
1.00000014321447e-07
56 -8 34.6833752096446
0 0

0101101
*
Ed
 1e-07 1 1 0
1  62 0 0 0.985110783337746
2  36 18 0 0 0.985110783337746
0

0101000
+517 0 -515 0 *
Ve
6.35270927890904e-07
55.9999999999999 -8 9.9936683487464
0 0

0101101
*
Ed
 1.00000014321447e-07 1 1 0
1  63 0 9.9936683487464 34.6833752096446
2  32 29 6 9.9936683487464 34.6833752096446
0

0101000
+513 6 -515 6 *
Ve
1.00000124728208e-07
62.4194559393781 -8 -1.11022302462516e-13
0 0

0101101
*
Ed
 1e-07 1 1 0
1  64 0 0.163223803516397 1.83640847636512
2  37 30 0 0.163223803516397 1.83640847636512
0

0101000
+513 0 -511 0 *
Ve
1e-07
66 -8 0
0 0

0101101
*
Ed
 1e-07 1 1 0
1  65 0 6.41945593937805 10
0

0101000
+511 6 -509 6 *
Ve
1e-07
74 -8 0
0 0

0101101
*
Ed
 1e-07 1 1 0
1  66 0 0 8
0

0101000
+509 0 -507 0 *
Ve
1e-07
74 -8 -28.3431457505076
0 0

0101101
*
Ed
 1e-07 1 1 0
1  67 0 1.65685424949237 30
0

0101000
+505 0 -507 0 *
Ve
1e-07
72.8284271247462 -8 -31.1715728752538
0 0

0101101
*
Ed
 1e-07 1 1 0
1  68 0 0.785398163397448 1.5707963267949
2  38 6 0 0.785398163397448 1.5707963267949
0

0101000
+503 0 -505 0 *
Ve
1e-07
63.1715728752538 -8 -40.8284271247462
0 0

0101101
*
Ed
 1e-07 1 1 0
1  69 0 1.65685424949239 15.3137084989847
0

0101000
+501 0 -503 0 *
Ed
 1e-07 1 1 0
1  70 0 0 0.785398163397448
2  39 3 0 0 0.785398163397448
0

0101000
+643 0 -501 0 *
Wi

0101100
-556 0 +552 0 +550 0 +548 0 -546 1 -544 1 +542 0 -540 0 +538 0 -536 0 
+534 0 -532 1 -530 3 +528 5 -526 0 +524 0 -522 0 +520 0 -518 0 +516 0 
-514 0 +512 5 -510 0 -508 5 -506 0 +504 0 +502 0 +500 0 +499 0 -642 0 
*
Ve
1e-07
-21.4 -8 42.3
0 0

0101101
*
Ed
 1e-07 1 1 0
1  71 0 0 6.28318530717959
2  40 16 0 0 6.28318530717959
0

0101100
+497 0 -497 0 *
Wi

0101100
+496 0 *
Ve
1e-07
5.4 -8 55
0 0

0101101
*
Ed
 1e-07 1 1 0
1  72 0 0 6.28318530717959
2  41 17 0 0 6.28318530717959
0

0101100
+494 0 -494 0 *
Wi

0101100
+493 0 *
Ve
1.00000007347881e-07
30 -8 0
0 0

0101101
*
Ed
 1e-07 1 1 0
1  73 0 0 6.28318530717959
2  42 22 0 0 6.28318530717959
0

0101100
+491 0 -491 0 *
Wi

0101100
+490 0 *
Ve
1.00000000888178e-07
58 -8 2.1
0 0

0101101
*
Ed
 1e-07 1 1 0
1  74 0 0 6.28318530717959
2  43 23 0 0 6.28318530717959
0

0101100
+488 0 -488 0 *
Wi

0101100
+487 0 *
Ve
1e-07
45.1 -8 -24.6
0 0

0101101
*
Ed
 1e-07 1 1 0
1  75 0 0 6.28318530717959
2  44 24 0 0 6.28318530717959
0

0101100
+485 0 -485 0 *
Wi

0101100
+484 0 *
Fa
0  1e-07 26 0

0101000
+498 0 +495 0 +492 0 +489 0 +486 0 +483 0 *
Ed
 1e-07 1 1 0
1  76 0 -0 8
2  45 3 0 -0 8
4 G1 3 0 31 0
0

0101000
+636 0 -501 0 *
Wi

0101100
+635 0 -641 0 +481 0 -499 0 *
Fa
0  1e-07 3 0

0101000
+480 0 *
Ed
 1e-07 1 1 0
1  77 0 -0 8
2  46 5 0 -0 8
4 G1 25 0 5 0
0

0101000
+634 0 -553 0 *
Wi

0101100
-633 0 +478 0 -557 0 +552 0 *
Fa
0  1e-07 25 0

0101000
+477 0 *
Ed
 1e-07 1 1 0
1  78 0 -0 8
2  47 6 0 -0 8
4 G1 31 0 6 0
0

0101000
+632 0 -503 0 *
Wi

0101100
-631 0 +481 0 -475 0 +500 0 *
Fa
0  1e-07 31 0

0101000
+474 0 *
Ed
 1e-07 1 1 0
1  79 0 0 8
2  48 5 0 0 8
4 G1 5 0 32 0
0

0101000
+630 0 -551 0 *
Wi

0101100
+629 0 -472 0 +478 0 -550 0 *
Fa
0  1e-07 5 0

0101000
+471 0 *
Ed
 1e-07 1 1 0
1  80 0 -0 8
2  49 6 0 -0 8
0

0101000
+628 0 -505 0 *
Wi

0101100
+627 0 -475 0 +469 0 -502 0 *
Fa
0  1e-07 6 0

0101000
+468 0 *
Ve
1e-07
-73.0370264094612 -8 8.87653081103807
0 0

0101101
*
Ed
 1e-07 1 1 0
1  81 0 0 8
2  50 7 0 0 8
4 G1 32 0 7 0
0

0101000
+626 0 -466 0 *
Ed
 1e-07 1 1 0
1  82 0 0 11.6910814912708
0

0101000
+549 0 -466 0 *
Wi

0101100
-625 0 +465 0 -464 0 +548 0 -472 0 *
Fa
0  1e-07 32 0

0111000
+463 0 *
Ve
1e-07
74 -8 76
0 0

0101101
*
Ed
 1e-07 1 1 0
1  83 0 -0 8
2  51 8 0 -0 8
0

0101000
+624 0 -461 0 *
Ve
1e-07
74 -8 80
0 0

0101101
*
Ed
 1e-07 1 1 0
1  84 0 76 80
0

0101000
+461 0 -459 0 *
Ve
1e-07
74 72 80
0 0

0101101
*
Ed
 1e-07 1 1 0
1  85 0 0 113.137084989848
0

0101000
+457 0 -507 0 *
Ve
1e-07
74 -12 80
0 0

0101101
*
Ed
 1e-07 1 1 0
1  86 0 80 84
0

0101000
+459 0 -455 0 *
Ve
1e-07
74 68 80
0 0

0101101
*
Ed
 1e-07 1 1 0
1  87 0 76 80
0

0101000
+453 0 -457 0 *
Ve
1e-07
74 -12 88
0 0

0101101
*
Ed
 1e-07 1 1 0
1  88 0 -0 8
2  52 9 0 -0 8
0

0101000
+455 0 -451 0 *
Ve
1e-07
74 68 88
0 0

0101101
*
Ed
 1e-07 1 1 0
1  89 0 -0 8
2  53 34 0 -0 8
0

0101000
+453 0 -449 0 *
Ed
 1e-07 1 1 0
1  90 0 4 84
0

0101000
+449 0 -451 0 *
Wi

0101100
-623 0 +469 0 -460 0 +504 0 -458 0 -456 0 -454 0 -452 0 -450 0 +448 0 
+447 0 *
Ve
1.50000014321447e-07
74 12.8284271247462 40.8284271247462
0 0

0101101
*
Ve
1.50000008881784e-07
74 5.99999999999999 43.6568542494924
0 0

0101101
*
Ed
 1e-07 1 1 0
1  91 0 3.92699081698724 6.28318530717959
2  54 35 0 3.92699081698724 6.28318530717959
0

0101000
+445 0 -444 0 *
Ve
1.50000015888219e-07
74 31.1715728752538 59.1715728752538
0 0

0101101
*
Ed
 1.5e-07 1 1 0
1  92 0 -43.3761543394987 -17.4350288425444
0

0101000
+442 0 -445 0 *
Ve
1.5e-07
74 28.3431457505076 66
0 0

0101101
*
Ed
 1e-07 1 1 0
1  93 0 0 2.35619449019234
2  55 36 0 0 2.35619449019234
0

0101000
+440 0 -442 0 *
Ve
1.5e-07
74 10 66
0 0

0101101
*
Ed
 1.5e-07 1 1 0
1  94 0 15 33.3431457505076
0

0101000
+438 0 -440 0 *
Ve
1.5e-07
74 6 62
0 0

0101101
*
Ed
 1e-07 1 1 0
1  95 0 0 1.5707963267949
2  56 37 0 0 1.5707963267949
0

0101000
+436 0 -438 0 *
Ed
 1.5e-07 1 1 0
1  96 0 41.6568542494924 60
0

0101000
+444 0 -436 0 *
Wi

0101100
+443 0 +441 0 +439 0 +437 0 +435 0 +434 0 *
Fa
0  1e-07 33 0

0101000
+446 0 +433 0 *
Ve
1.00000004721323e-07
-74 -8 11.4796963048619
0 0

0101101
*
Ed
 1e-07 1 1 0
1  97 0 -0 8
2  57 7 0 -0 8
0

0101000
+622 0 -431 0 *
Ed
 1e-07 1 1 0
1  98 0 4.71238898038469 5.42101525251236
2  58 7 0 4.71238898038469 5.42101525251236
0

0101000
+431 0 -466 0 *
Wi

0101100
+621 0 -430 0 +465 0 -429 0 *
Fa
0  1e-07 7 0

0101000
+428 0 *
Ve
1e-07
70 -8 80
0 0

0101101
*
Ed
 1e-07 1 1 0
1  99 0 -0 8
2  59 8 0 -0 8
0

0101000
+620 0 -426 0 *
Ed
 1e-07 1 1 0
1  100 0 1.5707963267949 3.14159265358979
2  60 8 0 1.5707963267949 3.14159265358979
0

0101000
+461 0 -426 0 *
Wi

0101100
+619 0 -460 0 +425 0 -424 0 *
Fa
0  1e-07 8 0

0101000
+423 0 *
Ve
1.00000008274037e-07
-74 -8 76
0 0

0101101
*
Ed
 1e-07 1 1 0
1  101 0 -0 8
2  61 10 0 -0 8
0

0101000
+618 0 -421 0 *
Ve
1e-07
-74 -8 80
0 0

0101101
*
Ed
 1e-07 1 1 0
1  102 0 76 80
0

0101000
+421 0 -419 0 *
Ve
1e-07
-74 -8 0
0 0

0101101
*
Ed
 1e-07 1 1 0
1  103 0 0 11.4796963048619
0

0101000
+417 0 -431 0 *
Ve
1e-07
-74 -12 80
0 0

0101101
*
Ed
 1e-07 1 1 0
1  104 0 4 8
0

0101000
+415 0 -419 0 *
Ve
1e-07
-74 72 80
0 0

0101101
*
Ed
 1e-07 1 1 0
1  105 0 0 113.137084989848
0

0101000
+413 0 -417 0 *
Ve
1e-07
-74 -12 88
0 0

0101101
*
Ed
 1e-07 1 1 0
1  106 0 -0 8
2  62 11 0 -0 8
0

0101000
+415 0 -411 0 *
Ve
1e-07
-74 68 80
0 0

0101101
*
Ed
 1e-07 1 1 0
1  107 0 76 80
0

0101000
+409 0 -413 0 *
Ve
1e-07
-74 68 88
0 0

0101101
*
Ed
 1e-07 1 1 0
1  108 0 4 84
0

0101000
+411 0 -407 0 *
Ed
 1e-07 1 1 0
1  109 0 -0 8
2  63 39 0 -0 8
0

0101000
+409 0 -407 0 *
Wi

0101100
-617 0 +420 0 -430 0 +418 0 +416 0 -414 0 +412 0 +410 0 +408 0 +406 0 
-405 0 *
Ve
1.5e-07
-74 6 62
0 0

0101101
*
Ve
1.5e-07
-74 10 66
0 0

0101101
*
Ed
 1e-07 1 1 0
1  110 0 0 1.5707963267949
2  64 40 0 0 1.5707963267949
0

0101000
+403 0 -402 0 *
Ve
1.5e-07
-74 28.3431457505076 66
0 0

0101101
*
Ed
 1.5e-07 1 1 0
1  111 0 -33.3431457505076 -15
0

0101000
+400 0 -402 0 *
Ve
1.50000007944109e-07
-74 31.1715728752538 59.1715728752538
0 0

0101101
*
Ed
 1e-07 1 1 0
1  112 0 0 2.35619449019234
2  65 41 0 0 2.35619449019234
0

0101000
+400 0 -398 0 *
Ve
1.50000007105427e-07
-74 12.8284271247462 40.8284271247462
0 0

0101101
*
Ed
 1.5e-07 1 1 0
1  113 0 -21.4558441227157 4.48528137423858
0

0101000
+396 0 -398 0 *
Ve
1.50000008881784e-07
-74 5.99999999999999 43.6568542494924
0 0

0101101
*
Ed
 1e-07 1 1 0
1  114 0 3.92699081698724 6.28318530717959
2  66 42 0 3.92699081698724 6.28318530717959
0

0101000
+396 0 -394 0 *
Ed
 1.5e-07 1 1 0
1  115 0 -5 13.3431457505076
0

0101000
+403 0 -394 0 *
Wi

0101100
-401 0 +399 0 -397 0 +395 0 -393 0 +392 0 *
Fa
0  1e-07 38 0

0101000
+404 0 +391 0 *
Ed
 1e-07 1 1 0
1  116 0 1.5707963267949 3.14159265358979
2  67 9 0 1.5707963267949 3.14159265358979
0

0101000
+455 0 -620 0 *
Ed
 1e-07 1 1 0
1  117 0 1.5707963267949 3.14159265358979
2  68 9 0 1.5707963267949 3.14159265358979
0

0101000
+451 0 -616 0 *
Wi

0101100
+389 0 -450 0 +615 0 -388 0 *
Fa
0  1e-07 9 0

0101000
+387 0 *
Ve
1e-07
-70 -8 80
0 0

0101101
*
Ed
 1e-07 1 1 0
1  118 0 -0 8
2  69 10 0 -0 8
0

0101000
+614 0 -385 0 *
Ed
 1e-07 1 1 0
1  119 0 3.14159265358979 4.71238898038469
2  70 10 0 3.14159265358979 4.71238898038469
0

0101000
+385 0 -421 0 *
Wi

0101100
+613 0 -384 0 +420 0 -383 0 *
Fa
0  1e-07 10 0

0101000
+382 0 *
Ve
1e-07
-70 72 88
0 0

0101101
*
Ve
1e-07
70 72 88
0 0

0101101
*
Ed
 1e-07 1 1 0
1  120 0 4 144
0

0101000
+380 0 -379 0 *
Ed
 1e-07 1 1 0
1  121 0 0 1.5707963267949
2  71 39 0 0 1.5707963267949
0

0101000
+380 0 -407 0 *
Ed
 1e-07 1 1 0
1  122 0 0 1.5707963267949
2  72 34 0 0 1.5707963267949
0

0101000
+379 0 -449 0 *
Ed
 1e-07 1 1 0
1  123 0 3.14159265358979 4.71238898038469
2  73 11 0 3.14159265358979 4.71238898038469
0

0101000
+612 0 -411 0 *
Wi

0101100
+378 0 -377 0 +376 0 +406 0 +447 0 +375 0 +388 0 +611 0 *
Ve
1e-07
-41.75 56 88
0 0

0101101
*
Ed
 1e-07 1 1 0
1  124 0 0 6.28318530717959
2  74 44 0 0 6.28318530717959
0

0101100
+373 0 -373 0 *
Wi

0101100
+372 0 *
Ve
1e-07
50.25 56 88
0 0

0101101
*
Ed
 1e-07 1 1 0
1  125 0 0 6.28318530717959
2  75 45 0 0 6.28318530717959
0

0101100
+370 0 -370 0 *
Wi

0101100
+369 0 *
Ve
1.00000001776357e-07
-41.75 14 88
0 0

0101101
*
Ed
 1e-07 1 1 0
1  126 0 0 6.28318530717959
2  76 46 0 0 6.28318530717959
0

0101100
+367 0 -367 0 *
Wi

0101100
+366 0 *
Ve
1.5e-07
29 57 88
0 0

0101101
*
Ve
1.5e-07
35 51 88
0 0

0101101
*
Ed
 1e-07 1 1 0
1  127 0 0 1.5707963267949
2  77 47 0 0 1.5707963267949
0

0101000
+364 0 -363 0 *
Ve
1.5e-07
35 17 88
0 0

0101101
*
Ed
 1.5e-07 1 1 0
1  128 0 -25.5 8.5
0

0101000
+361 0 -363 0 *
Ve
1.5e-07
29 11 88
0 0

0101101
*
Ed
 1e-07 1 1 0
1  129 0 0 1.5707963267949
2  78 48 0 0 1.5707963267949
0

0101000
+361 0 -359 0 *
Ve
1.5e-07
-29 11 88
0 0

0101101
*
Ed
 1.5e-07 1 1 0
1  130 0 -46.5 11.5
0

0101000
+357 0 -359 0 *
Ve
1.5e-07
-35 17 88
0 0

0101101
*
Ed
 1e-07 1 1 0
1  131 0 0 1.5707963267949
2  79 49 0 0 1.5707963267949
0

0101000
+357 0 -355 0 *
Ve
1.5e-07
-35 51 88
0 0

0101101
*
Ed
 1.5e-07 1 1 0
1  132 0 -31.5 2.5
0

0101000
+353 0 -355 0 *
Ve
1.5e-07
-29 57 88
0 0

0101101
*
Ed
 1e-07 1 1 0
1  133 0 4.71238898038469 6.28318530717959
2  80 50 0 4.71238898038469 6.28318530717959
0

0101000
+353 0 -351 0 *
Ed
 1.5e-07 1 1 0
1  134 0 -46.5 11.5
0

0101000
+364 0 -351 0 *
Wi

0101100
-362 0 +360 0 -358 0 +356 0 -354 0 +352 0 -350 0 +349 0 *
Ve
1.00000001776357e-07
50.25 14 88
0 0

0101101
*
Ed
 1e-07 1 1 0
1  135 0 0 6.28318530717959
2  81 51 0 0 6.28318530717959
0

0101100
+347 0 -347 0 *
Wi

0101100
+346 0 *
Fa
0  1e-07 43 0

0101000
+374 0 +371 0 +368 0 +365 0 +348 0 +345 0 *
Ed
 1e-07 1 1 0
1  136 0 3.14159265358979 4.71238898038469
2  82 11 0 3.14159265358979 4.71238898038469
0

0101000
+614 0 -415 0 *
Wi

0101100
+343 0 -610 0 +410 0 -375 0 *
Fa
0  1e-07 11 0

0101000
+342 0 *
Ed
 1e-07 1 1 0
1  137 0 -0 8
2  83 13 0 -0 8
4 G1 52 0 13 0
0

0101000
+607 0 -543 0 *
Ve
1.00000001776357e-07
-59 -7.53939201416946 23
0 0

0101101
*
Ed
 1e-07 1 1 0
1  138 0 4.71238898038469 5.01708163440009
2  84 27 0 4.71238898038469 5.01708163440009
0

0101000
+545 0 -339 0 *
Ed
 1e-07 1 1 0
1  139 0 -0 8.46060798583054
2  85 12 0 -0 8.46060798583054
4 G1 52 0 12 0
0

0101000
+608 0 -339 0 *
Wi

0101100
-606 0 -340 0 -542 0 -338 0 +337 0 *
Fa
0  1e-07 52 0

0101000
+336 0 *
Ve
1.00000010048592e-07
-60.3588989435407 -7 23.1559095094922
0 0

0101101
*
Ed
 1e-07 1 1 0
1  140 0 0 0.999999016330147
2  86 12 0 0 0.999999016330147
2  87 27 0 0 0.999999016330147
0

0101000
+339 0 -334 0 *
Ve
1e-07
-65 -7 29
0 0

0101101
*
Ed
 1e-07 1 1 0
1  141 0 0.228465492429836 1.5707963267949
2  88 12 0 0.228465492429836 1.5707963267949
0

0101000
+334 0 -332 0 *
Ed
 1e-07 1 1 0
1  142 0 -0 9
2  89 12 0 -0 9
4 G1 12 0 53 0
0

0101000
+605 0 -332 0 *
Wi

0101100
-337 0 -333 0 -331 0 +330 0 +604 0 *
Fa
0  1e-07 12 0

0101000
+329 0 *
Ed
 1e-07 1 1 0
1  143 0 -0 8
2  90 13 0 -0 8
4 G1 13 0 54 0
0

0101000
+603 0 -541 0 *
Wi

0101100
-340 0 -540 0 +327 0 +602 0 *
Fa
0  1e-07 13 0

0101000
+326 0 *
Ve
1e-07
-65 -7 59
0 0

0101101
*
Ed
 1e-07 1 1 0
1  144 0 -0 9
2  91 14 0 -0 9
4 G1 53 0 14 0
0

0101000
+601 0 -324 0 *
Ed
 1e-07 1 1 0
1  145 0 6 36
0

0101000
+324 0 -332 0 *
Wi

0101100
-600 0 +323 0 -330 0 +322 0 *
Fa
0  1e-07 53 0

0101000
+321 0 *
Ed
 1e-07 1 1 0
1  146 0 -0 8
2  92 15 0 -0 8
4 G1 54 0 15 0
0

0101000
+599 0 -539 0 *
Wi

0101100
-598 0 -319 0 -538 0 +327 0 *
Fa
0  1e-07 54 0

0101000
+318 0 *
Ve
1.00000001776357e-07
-59 -7.53939201416946 65
0 0

0101101
*
Ed
 1e-07 1 1 0
1  147 0 -0 8.46060798583054
2  93 14 0 -0 8.46060798583054
4 G1 14 0 55 0
0

0101000
+597 0 -316 0 *
Ve
1.00000014888583e-07
-60.3588989435407 -7 64.8440904905078
0 0

0101101
*
Ed
 1e-07 1 1 0
1  148 0 0 0.999999016330144
2  94 14 0 0 0.999999016330144
2  95 27 0 0 0.999999016330144
0

0101000
+316 0 -314 0 *
Ed
 1e-07 1 1 0
1  149 0 3.37005814601963 4.71238898038469
2  96 14 0 3.37005814601963 4.71238898038469
0

0101000
+314 0 -324 0 *
Wi

0101100
-315 0 -313 0 -312 0 +323 0 +596 0 *
Fa
0  1e-07 14 0

0101000
+311 0 *
Ed
 1e-07 1 1 0
1  150 0 -0 8
2  97 15 0 -0 8
4 G1 15 0 55 0
0

0101000
+595 0 -537 0 *
Wi

0101100
-319 0 -536 0 +309 0 +594 0 *
Fa
0  1e-07 15 0

0101000
+308 0 *
Ed
 1e-07 1 1 0
1  151 0 4.71238898038469 5.01708163440009
2  98 27 0 4.71238898038469 5.01708163440009
0

0101000
+535 0 -316 0 *
Wi

0101100
-593 0 -315 0 +306 0 -534 0 +309 0 *
Fa
0  1e-07 55 0

0101000
+305 0 *
Ed
 1e-07 1 1 0
1  152 0 0 8
3  99 100CN 16 0 0 8
0

0101000
+591 0 -497 0 *
Wi

0101100
-590 0 -303 0 -496 0 +303 0 *
Fa
0  1e-07 16 0

0101000
+302 0 *
Ed
 1e-07 1 1 0
1  153 0 0 8
3  101 102CN 17 0 0 8
0

0101000
+588 0 -494 0 *
Wi

0101100
-587 0 -300 0 -493 0 +300 0 *
Fa
0  1e-07 17 0

0101000
+299 0 *
Ed
 1e-07 1 1 0
1  154 0 -0 8
2  103 18 0 -0 8
4 G1 56 0 18 0
0

0101000
+584 0 -517 0 *
Ed
 1e-07 1 1 0
1  155 0 -0 8
2  104 21 0 -0 8
4 G1 56 0 21 0
0

0101000
+585 0 -519 0 *
Wi

0101100
-583 0 -297 0 -516 0 +296 0 *
Fa
0  1e-07 56 0

0101000
+295 0 *
Ve
1.00000001776357e-07
57 -7.9498743710662 38
0 0

0101101
*
Ed
 1e-07 1 1 0
1  156 0 0 1
2  105 18 0 0 1
2  106 29 0 0 1
0

0101000
+515 0 -293 0 *
Ed
 1e-07 1 1 0
1  157 0 -0 8.0501256289338
2  107 18 0 -0 8.0501256289338
4 G1 18 0 57 0
0

0101000
+582 0 -293 0 *
Wi

0101100
-297 0 -514 0 -292 0 +291 0 +581 0 *
Fa
0  1e-07 18 0

0101000
+290 0 *
Ve
1.00000001776357e-07
57 -7.9498743710662 60
0 0

0101101
*
Ed
 1e-07 1 1 0
1  158 0 -0 8.0501256289338
2  108 19 0 -0 8.0501256289338
4 G1 57 0 19 0
0

0101000
+580 0 -288 0 *
Ed
 1e-07 1 1 0
1  159 0 138 160
2  109 29 0 138 160
0

0101000
+293 0 -288 0 *
Wi

0101100
-579 0 -287 0 +286 0 +291 0 *
Fa
0  1e-07 57 0

0101000
+285 0 *
Ed
 1e-07 1 1 0
1  160 0 0 1
2  110 19 0 0 1
2  111 29 0 0 1
0

0101000
+288 0 -529 0 *
Ed
 1e-07 1 1 0
1  161 0 -0 8
2  112 19 0 -0 8
4 G1 19 0 58 0
0

0101000
+578 0 -527 0 *
Wi

0101100
-287 0 -283 0 -526 0 +282 0 +577 0 *
Fa
0  1e-07 19 0

0101000
+281 0 *
Ed
 1e-07 1 1 0
1  162 0 -0 8
2  113 20 0 -0 8
4 G1 58 0 20 0
0

0101000
+576 0 -525 0 *
Wi

0101100
-575 0 -279 0 -524 0 +282 0 *
Fa
0  1e-07 58 0

0101000
+278 0 *
Ed
 1e-07 1 1 0
1  163 0 -0 8
2  114 20 0 -0 8
4 G1 20 0 59 0
0

0101000
+574 0 -523 0 *
Wi

0101100
-279 0 -522 0 +276 0 +573 0 *
Fa
0  1e-07 20 0

0101000
+275 0 *
Ed
 1e-07 1 1 0
1  164 0 -0 8
2  115 21 0 -0 8
4 G1 59 0 21 0
0

0101000
+572 0 -521 0 *
Wi

0101100
-571 0 -273 0 -520 0 +276 0 *
Fa
0  1e-07 59 0

0101000
+272 0 *
Wi

0101100
-296 0 +518 0 +273 0 +570 0 *
Fa
0  1e-07 21 0

0101000
+270 0 *
Ed
 1e-07 1 1 0
1  165 0 0 8
3  116 117CN 22 0 0 8
0

0101000
+568 0 -491 0 *
Wi

0101100
-567 0 -268 0 -490 0 +268 0 *
Fa
0  1e-07 22 0

0101000
+267 0 *
Ed
 1e-07 1 1 0
1  166 0 0 8
3  118 119CN 23 0 0 8
0

0101000
+565 0 -488 0 *
Wi

0101100
-564 0 -265 0 -487 0 +265 0 *
Fa
0  1e-07 23 0

0101000
+264 0 *
Ed
 1e-07 1 1 0
1  167 0 0 8
3  120 121CN 24 0 0 8
0

0101000
+562 0 -485 0 *
Wi

0101100
-561 0 -262 0 -484 0 +262 0 *
Fa
0  1e-07 24 0

0101000
+261 0 *
Ve
1.50001e-07
-66 2 0
0 0

0101101
*
Ve
1e-07
-66 -8 0
0 0

0101101
*
Ed
 1e-07 1 1 0
1  168 0 0 10
0

0101000
+259 2 -258 2 *
Ed
 1e-07 1 1 0
1  169 0 0 0.571428571428569
0

0101000
+258 2 -549 2 *
Ed
 1e-07 1 1 0
1  170 0 4.71238898038469 6.28318530717959
2  122 27 0 4.71238898038469 6.28318530717959
0

0101000
+547 0 -259 0 *
Wi

0101100
-257 1 -256 1 -546 1 -255 0 *
Fa
0  1e-07 60 1

0101000
+254 0 *
Ve
1.00000018593501e-07
-66 2.00000000000001 10
0 0

0101101
*
Ed
 1.00000007324107e-07 1 1 0
1  171 0 0 10
2  123 27 2 0 10
0

0101000
+259 2 -252 2 *
Ve
1.50000000888178e-07
-66 2 70
0 0

0101101
*
Ed
 1.00000018593501e-07 1 1 0
1  172 0 10 70
2  124 27 0 10 70
0

0101000
+250 0 -252 0 *
Ed
 1e-07 1 1 0
1  173 0 4.71238898038469 6.28318530717959
2  125 27 0 4.71238898038469 6.28318530717959
2  126 61 0 4.71238898038469 6.28318530717959
4 G1 27 0 61 0
0

0101000
+533 0 -250 0 *
Ed
 1e-07 1 1 0
1  174 0 123.155909509492 164.844090490508
2  127 27 0 123.155909509492 164.844090490508
0

0101000
+334 0 -314 0 *
Wi

0101100
-251 1 +249 0 +248 0 +532 1 -306 0 -313 0 +247 0 +333 0 +338 0 +544 1 
-255 0 *
Fa
0  1e-07 27 0

0101000
+246 0 *
Ve
1.5e-07
-56 2 80
0 0

0101101
*
Ed
 1e-07 1 1 0
1  175 0 4.71238898038469 6.28318530717959
2  128 28 0 4.71238898038469 6.28318530717959
2  129 61 0 4.71238898038469 6.28318530717959
4 G1 28 0 61 0
0

0101000
+533 0 -244 0 *
Ve
1.5e-07
56 2 80
0 0

0101101
*
Ed
 1.00000007513512e-07 1 1 0
1  176 0 10 122
2  130 28 0 10 122
0

0101000
+242 0 -244 0 *
Ed
 1e-07 1 1 0
1  177 0 4.71238898038469 6.28318530717959
2  131 28 0 4.71238898038469 6.28318530717959
2  132 62 0 4.71238898038469 6.28318530717959
4 G1 28 0 62 0
0

0101000
+531 0 -242 0 *
Wi

0101100
+243 0 -530 3 -241 0 -240 0 *
Fa
0  1e-07 28 0

0101000
+239 0 *
Ve
1.50001e-07
66 2 0
0 0

0101101
*
Ve
1.00000018033522e-07
66 2.00000000000001 10
0 0

0101101
*
Ed
 1.00000007324107e-07 1 1 0
1  178 0 0 10
2  133 29 6 0 10
0

0101000
+237 6 -236 6 *
Ve
1.50000000888178e-07
66 2 70
0 0

0101101
*
Ed
 1.00000018033522e-07 1 1 0
1  179 0 0 60
2  134 29 0 0 60
0

0101000
+236 0 -234 0 *
Ed
 1e-07 1 1 0
1  180 0 4.71238898038469 6.28318530717959
2  135 29 0 4.71238898038469 6.28318530717959
2  136 62 0 4.71238898038469 6.28318530717959
4 G1 29 0 62 0
0

0101000
+531 0 -234 0 *
Ve
2.00506836184078e-07
62.4194559393781 -5.66750190364389 0
0 0

0101101
*
Ed
 2.00506816427912e-07 1 1 0
1  181 0 0 0.999999949638035
2  137 29 0 0 0.999999949638035
2  138 30 0 0 0.999999949638035
0

0101000
+513 0 -231 0 *
Ed
 1e-07 1 1 0
1  182 0 0 0.873763293288442
2  139 29 0 0 0.873763293288442
0

0101000
+237 0 -231 0 *
Wi

0101100
-235 5 -233 0 +232 0 +528 5 +283 0 +286 0 +292 0 +512 5 -230 0 +229 0 
*
Fa
0  1e-07 29 0

0101000
+228 0 *
Ed
 1e-07 1 1 0
1  183 0 197.667501903644 200
2  140 30 0 197.667501903644 200
0

0101000
+231 0 -511 0 *
Wi

0101100
-510 0 +226 0 +230 0 *
Fa
0  1e-07 30 0

0101000
+225 0 *
Ed
 1e-07 1 1 0
1  184 0 0 10
0

0101000
+237 6 -509 6 *
Wi

0101100
-508 5 +223 5 -229 0 -226 0 *
Fa
0  1e-07 63 5

0101000
+222 0 *
Ve
1.00000003552714e-07
66 72 80
0 0

0101101
*
Ve
1e-07
70 72 80
0 0

0101101
*
Ed
 1e-07 1 1 0
1  185 0 140 144
0

0101000
+220 0 -219 0 *
Ed
 1e-07 1 1 0
1  186 0 4 8
0

0101000
+219 0 -457 0 *
Ve
1.00000007653796e-07
66 62 70
0 0

0101101
*
Ed
 1e-07 1 1 0
1  187 0 0 14.1421356237309
0

0101000
+220 0 -216 0 *
Ed
 1e-07 1 1 0
1  188 0 14.1421356237309 98.9949493661166
0

0101000
+216 0 -236 0 *
Ed
 1e-07 1 1 0
1  189 0 98.9949493661166 113.137084989848
0

0101000
+236 0 -509 0 *
Wi

0101100
+218 0 +217 0 -506 0 -215 0 -214 0 -213 0 +456 0 *
Fa
0  1e-07 64 0

0101000
+212 0 *
Ed
 1e-07 1 1 0
1  190 0 0 8
0

0101000
+417 0 -258 0 *
Wi

0101100
-416 0 +210 0 +256 1 +464 0 -429 0 *
Fa
0  1e-07 65 0

0101000
+209 0 *
Ed
 1e-07 1 1 0
1  191 0 4 8
0

0101000
+426 0 -459 0 *
Wi

0101100
-424 0 -207 0 +458 0 *
Fa
0  1e-07 66 0

0101000
+206 0 *
Wi

0101100
+425 0 +389 0 +454 0 +207 0 *
Fa
0  1e-07 67 0

0101000
+204 0 *
Ed
 1e-07 1 1 0
1  192 0 0 1.5707963267949
2  141 34 0 0 1.5707963267949
0

0101000
+219 0 -453 0 *
Wi

0101100
+202 0 -217 0 +452 0 *
Fa
0  1e-07 68 0

0101000
+201 0 *
Ed
 1e-07 1 1 0
1  193 0 -0 8
2  142 34 0 -0 8
0

0101000
+219 0 -379 0 *
Wi

0101100
+202 0 -199 0 +448 0 -376 0 *
Fa
0  1e-07 34 0

0101000
+198 0 *
Ve
1.50000008881784e-07
66 5.99999999999999 43.6568542494924
0 0

0101101
*
Ed
 1e-07 1 1 0
1  194 0 1 9
2  143 35 0 1 9
4 G1 35 0 69 0
0

0101000
+196 0 -444 0 *
Ve
1.50000007944109e-07
66 12.8284271247462 40.8284271247462
0 0

0101101
*
Ed
 1e-07 1 1 0
1  195 0 1 9
2  144 35 0 1 9
4 G1 35 0 70 0
0

0101000
+194 0 -445 0 *
Ed
 1e-07 1 1 0
1  196 0 3.92699081698724 6.28318530717959
2  145 35 0 3.92699081698724 6.28318530717959
0

0101000
+194 0 -196 0 *
Wi

0101100
-195 0 +443 0 +193 0 -192 0 *
Fa
0  1e-07 35 0

0101000
+191 0 *
Ve
1.50000007944109e-07
66 31.1715728752538 59.1715728752538
0 0

0101101
*
Ed
 1.5e-07 1 1 0
1  197 0 -24.2842712474619 1.65685424949239
0

0101000
+194 0 -189 0 *
Ed
 1e-07 1 1 0
1  198 0 1 9
2  146 36 0 1 9
4 G1 70 0 36 0
0

0101000
+189 0 -442 0 *
Wi

0101100
+188 0 -193 0 +441 0 +187 0 *
Fa
0  1e-07 70 0

0101000
+186 0 *
Ve
1.5e-07
66 28.3431457505076 66
0 0

0101101
*
Ed
 1e-07 1 1 0
1  199 0 1 9
2  147 36 0 1 9
4 G1 36 0 71 0
0

0101000
+184 0 -440 0 *
Ed
 1e-07 1 1 0
1  200 0 0 2.35619449019234
2  148 36 0 0 2.35619449019234
0

0101000
+184 0 -189 0 *
Wi

0101100
-183 0 -439 0 +187 0 +182 0 *
Fa
0  1e-07 36 0

0101000
+181 0 *
Ve
1.5e-07
66 10 66
0 0

0101101
*
Ed
 1.5e-07 1 1 0
1  201 0 -15.2010101267767 3.14213562373095
0

0101000
+184 0 -179 0 *
Ed
 1e-07 1 1 0
1  202 0 1 9
2  149 37 0 1 9
4 G1 71 0 37 0
0

0101000
+179 0 -438 0 *
Wi

0101100
+178 0 -183 0 +437 0 +177 0 *
Fa
0  1e-07 71 0

0101000
+176 0 *
Ve
1.5e-07
66 6 62
0 0

0101101
*
Ed
 1e-07 1 1 0
1  203 0 1 9
2  150 37 0 1 9
4 G1 37 0 69 0
0

0101000
+174 0 -436 0 *
Ed
 1e-07 1 1 0
1  204 0 0 1.5707963267949
2  151 37 0 0 1.5707963267949
0

0101000
+174 0 -179 0 *
Wi

0101100
-173 0 -435 0 +177 0 +172 0 *
Fa
0  1e-07 37 0

0101000
+171 0 *
Ed
 1.5e-07 1 1 0
1  205 0 -19.142135623731 -0.798989873223313
0

0101000
+174 0 -196 0 *
Wi

0101100
+169 0 -173 0 +434 0 +195 0 *
Fa
0  1e-07 69 0

0101000
+168 0 *
Ed
 1e-07 1 1 0
1  206 0 0 4
0

0101000
+419 0 -385 0 *
Wi

0101100
-418 0 -166 0 -383 0 *
Fa
0  1e-07 72 0

0101000
+165 0 *
Wi

0101100
+414 0 +343 0 -384 0 +166 0 *
Fa
0  1e-07 73 0

0101000
+163 0 *
Ve
1e-07
-70 72 80
0 0

0101101
*
Ed
 1e-07 1 1 0
1  207 0 0 4
0

0101000
+413 0 -161 0 *
Ve
1.00000003552714e-07
-66 72 80
0 0

0101101
*
Ed
 1e-07 1 1 0
1  208 0 4 8
0

0101000
+161 0 -159 0 *
Ve
1.00000007653796e-07
-66 62 70
0 0

0101101
*
Ed
 1e-07 1 1 0
1  209 0 0 14.1421356237309
0

0101000
+159 0 -157 0 *
Ed
 1e-07 1 1 0
1  210 0 14.1421356237309 98.9949493661166
0

0101000
+157 0 -252 0 *
Ed
 1e-07 1 1 0
1  211 0 98.9949493661166 113.137084989848
0

0101000
+252 0 -258 0 *
Wi

0101100
+160 0 +158 0 -210 0 -412 0 +156 0 +155 0 +154 0 *
Fa
0  1e-07 74 0

0101000
+153 0 *
Ed
 1e-07 1 1 0
1  212 0 0 1.5707963267949
2  152 39 0 0 1.5707963267949
0

0101000
+161 0 -409 0 *
Wi

0101100
-408 0 -160 0 -151 0 *
Fa
0  1e-07 75 0

0101000
+150 0 *
Ed
 1e-07 1 1 0
1  213 0 -0 8
2  153 39 0 -0 8
0

0101000
+161 0 -380 0 *
Wi

0101100
+151 0 -148 0 +405 0 -377 0 *
Fa
0  1e-07 39 0

0101000
+147 0 *
Ve
1.5e-07
-66 6 62
0 0

0101101
*
Ed
 1e-07 1 1 0
1  214 0 1 9
2  154 40 0 1 9
4 G1 40 0 76 0
0

0101000
+403 0 -145 0 *
Ve
1.5e-07
-66 10 66
0 0

0101101
*
Ed
 1e-07 1 1 0
1  215 0 0 1.5707963267949
2  155 40 0 0 1.5707963267949
0

0101000
+145 0 -143 0 *
Ed
 1e-07 1 1 0
1  216 0 1 9
2  156 40 0 1 9
4 G1 40 0 77 0
0

0101000
+402 0 -143 0 *
Wi

0101100
-144 0 -142 0 +141 0 +401 0 *
Fa
0  1e-07 40 0

0101000
+140 0 *
Ve
1.5e-07
-66 28.3431457505076 66
0 0

0101101
*
Ed
 1e-07 1 1 0
1  217 0 1 9
2  157 41 0 1 9
4 G1 77 0 41 0
0

0101000
+400 0 -138 0 *
Ed
 1.5e-07 1 1 0
1  218 0 -15.2010101267767 3.14213562373095
0

0101000
+138 0 -143 0 *
Wi

0101100
+399 0 -137 0 -136 0 +141 0 *
Fa
0  1e-07 77 0

0101000
+135 0 *
Ve
1.50000007944109e-07
-66 31.1715728752538 59.1715728752538
0 0

0101101
*
Ed
 1e-07 1 1 0
1  219 0 0 2.35619449019234
2  158 41 0 0 2.35619449019234
0

0101000
+138 0 -133 0 *
Ed
 1e-07 1 1 0
1  220 0 1 9
2  159 41 0 1 9
4 G1 41 0 78 0
0

0101000
+398 0 -133 0 *
Wi

0101100
-137 0 -132 0 +131 0 +397 0 *
Fa
0  1e-07 41 0

0101000
+130 0 *
Ve
1.50000007944109e-07
-66 12.8284271247462 40.8284271247462
0 0

0101101
*
Ed
 1e-07 1 1 0
1  221 0 1 9
2  160 42 0 1 9
4 G1 78 0 42 0
0

0101000
+396 0 -128 0 *
Ed
 1.5e-07 1 1 0
1  222 0 -24.2842712474619 1.65685424949239
0

0101000
+128 0 -133 0 *
Wi

0101100
+395 0 -127 0 -126 0 +131 0 *
Fa
0  1e-07 78 0

0101000
+125 0 *
Ve
1.50000008881784e-07
-66 5.99999999999999 43.6568542494924
0 0

0101101
*
Ed
 1e-07 1 1 0
1  223 0 1 9
2  161 42 0 1 9
4 G1 42 0 76 0
0

0101000
+394 0 -123 0 *
Ed
 1e-07 1 1 0
1  224 0 3.92699081698724 6.28318530717959
2  162 42 0 3.92699081698724 6.28318530717959
0

0101000
+128 0 -123 0 *
Wi

0101100
-122 0 +121 0 +127 0 -393 0 *
Fa
0  1e-07 42 0

0101000
+120 0 *
Ed
 1.5e-07 1 1 0
1  225 0 -19.142135623731 -0.798989873223313
0

0101000
+145 0 -123 0 *
Wi

0101100
+392 0 -144 0 -118 0 +122 0 *
Fa
0  1e-07 76 0

0101000
+117 0 *
Ve
1.50001e-07
-66 72 70
0 0

0101101
*
Ed
 1e-07 1 1 0
1  226 0 0 10
0

0101000
+115 8 -159 8 *
Ve
1.50001e-07
-56 72 80
0 0

0101101
*
Ed
 1e-07 1 1 0
1  227 0 0 1.5707963267949
2  163 80 0 0 1.5707963267949
0

0101000
+115 0 -113 0 *
Ve
1.50001e-07
56 72 80
0 0

0101101
*
Ed
 1e-07 1 1 0
1  228 0 18 130
0

0101000
+113 0 -111 0 *
Ve
1.50001e-07
66 72 70
0 0

0101101
*
Ed
 1e-07 1 1 0
1  229 0 4.71238898038469 6.28318530717959
2  164 81 0 4.71238898038469 6.28318530717959
0

0101000
+111 0 -109 0 *
Ed
 1e-07 1 1 0
1  230 0 0 10
0

0101000
+109 10 -220 10 *
Wi

0101100
-158 0 +114 7 -112 0 -110 0 -108 0 -107 9 -218 0 -199 0 +378 0 +148 0 
*
Fa
0  1e-07 79 0

0101000
+106 0 *
Ve
1e-07
-41.75 56 80
0 0

0101101
*
Ed
 1e-07 1 1 0
1  231 0 0 6.28318530717959
2  165 44 0 0 6.28318530717959
0

0101100
+104 0 -104 0 *
Ed
 1e-07 1 1 0
1  232 0 1 9
3  166 167CN 44 0 1 9
0

0101000
+104 0 -373 0 *
Wi

0101100
+103 0 -102 0 -372 0 +102 0 *
Fa
0  1e-07 44 0

0101000
+101 0 *
Ve
1e-07
50.25 56 80
0 0

0101101
*
Ed
 1e-07 1 1 0
1  233 0 0 6.28318530717959
2  168 45 0 0 6.28318530717959
0

0101100
+99 0 -99 0 *
Ed
 1e-07 1 1 0
1  234 0 1 9
3  169 170CN 45 0 1 9
0

0101000
+99 0 -370 0 *
Wi

0101100
+98 0 -97 0 -369 0 +97 0 *
Fa
0  1e-07 45 0

0101000
+96 0 *
Ve
1.00000001776357e-07
-41.75 14 80
0 0

0101101
*
Ed
 1e-07 1 1 0
1  235 0 0 6.28318530717959
2  171 46 0 0 6.28318530717959
0

0101100
+94 0 -94 0 *
Ed
 1e-07 1 1 0
1  236 0 1 9
3  172 173CN 46 0 1 9
0

0101000
+94 0 -367 0 *
Wi

0101100
+93 0 -92 0 -366 0 +92 0 *
Fa
0  1e-07 46 0

0101000
+91 0 *
Ve
1.5e-07
29 57 80
0 0

0101101
*
Ed
 1e-07 1 1 0
1  237 0 1 9
2  174 47 0 1 9
4 G1 47 0 82 0
0

0101000
+89 0 -364 0 *
Ve
1.5e-07
35 51 80
0 0

0101101
*
Ed
 1e-07 1 1 0
1  238 0 1 9
2  175 47 0 1 9
4 G1 47 0 83 0
0

0101000
+87 0 -363 0 *
Ed
 1e-07 1 1 0
1  239 0 0 1.5707963267949
2  176 47 0 0 1.5707963267949
0

0101000
+89 0 -87 0 *
Wi

0101100
-88 0 -362 0 +86 0 +85 0 *
Fa
0  1e-07 47 0

0101000
+84 0 *
Ve
1.5e-07
35 17 80
0 0

0101101
*
Ed
 1.5e-07 1 1 0
1  240 0 -25.5 8.5
0

0101000
+82 0 -87 0 *
Ed
 1e-07 1 1 0
1  241 0 1 9
2  177 48 0 1 9
4 G1 83 0 48 0
0

0101000
+82 0 -361 0 *
Wi

0101100
+81 0 -80 0 -360 0 +86 0 *
Fa
0  1e-07 83 0

0101000
+79 0 *
Ve
1.5e-07
29 11 80
0 0

0101101
*
Ed
 1e-07 1 1 0
1  242 0 1 9
2  178 48 0 1 9
4 G1 48 0 84 0
0

0101000
+77 0 -359 0 *
Ed
 1e-07 1 1 0
1  243 0 0 1.5707963267949
2  179 48 0 0 1.5707963267949
0

0101000
+82 0 -77 0 *
Wi

0101100
-80 0 -358 0 +76 0 +75 0 *
Fa
0  1e-07 48 0

0101000
+74 0 *
Ve
1.5e-07
-29 11 80
0 0

0101101
*
Ed
 1.5e-07 1 1 0
1  244 0 -46.5 11.5
0

0101000
+72 0 -77 0 *
Ed
 1e-07 1 1 0
1  245 0 1 9
2  180 49 0 1 9
4 G1 84 0 49 0
0

0101000
+72 0 -357 0 *
Wi

0101100
+71 0 -70 0 -356 0 +76 0 *
Fa
0  1e-07 84 0

0101000
+69 0 *
Ve
1.5e-07
-35 17 80
0 0

0101101
*
Ed
 1e-07 1 1 0
1  246 0 1 9
2  181 49 0 1 9
4 G1 49 0 85 0
0

0101000
+67 0 -355 0 *
Ed
 1e-07 1 1 0
1  247 0 0 1.5707963267949
2  182 49 0 0 1.5707963267949
0

0101000
+72 0 -67 0 *
Wi

0101100
-70 0 -354 0 +66 0 +65 0 *
Fa
0  1e-07 49 0

0101000
+64 0 *
Ve
1.5e-07
-35 51 80
0 0

0101101
*
Ed
 1.5e-07 1 1 0
1  248 0 -31.5 2.5
0

0101000
+62 0 -67 0 *
Ed
 1e-07 1 1 0
1  249 0 1 9
2  183 50 0 1 9
4 G1 85 0 50 0
0

0101000
+62 0 -353 0 *
Wi

0101100
+61 0 -60 0 -352 0 +66 0 *
Fa
0  1e-07 85 0

0101000
+59 0 *
Ve
1.5e-07
-29 57 80
0 0

0101101
*
Ed
 1e-07 1 1 0
1  250 0 1 9
2  184 50 0 1 9
4 G1 50 0 82 0
0

0101000
+57 0 -351 0 *
Ed
 1e-07 1 1 0
1  251 0 4.71238898038469 6.28318530717959
2  185 50 0 4.71238898038469 6.28318530717959
0

0101000
+62 0 -57 0 *
Wi

0101100
-56 0 +350 0 +60 0 -55 0 *
Fa
0  1e-07 50 0

0101000
+54 0 *
Ed
 1.5e-07 1 1 0
1  252 0 -46.5 11.5
0

0101000
+89 0 -57 0 *
Wi

0101100
+52 0 -88 0 -349 0 +56 0 *
Fa
0  1e-07 82 0

0101000
+51 0 *
Ve
1.00000001776357e-07
50.25 14 80
0 0

0101101
*
Ed
 1e-07 1 1 0
1  253 0 0 6.28318530717959
2  186 51 0 0 6.28318530717959
0

0101100
+49 0 -49 0 *
Ed
 1e-07 1 1 0
1  254 0 1 9
3  187 188CN 51 0 1 9
0

0101000
+49 0 -347 0 *
Wi

0101100
+48 0 -47 0 -346 0 +47 0 *
Fa
0  1e-07 51 0

0101000
+46 0 *
Wi

0101100
-331 0 +322 0 +312 0 +247 0 *
Fa
0  1e-07 86 0

0101000
+44 0 *
Wi

0101100
-154 0 +257 1 -251 1 *
Fa
0  1e-07 87 1

0101000
+42 0 *
Ed
 1e-07 1 1 0
1  255 0 10 70
2  189 80 8 10 70
0

0101000
+157 8 -250 8 *
Wi

0101100
-249 0 -40 7 +155 0 *
Wi

0101100
-142 0 +136 0 -132 0 +126 0 -121 0 +118 0 *
Fa
0  1e-07 88 0

0101000
+39 0 +38 0 *
Ed
 1e-07 1 1 1
2  190 61 0 0 1.5707963267949
0

0101000
+533 0 -533 0 *
Ed
 1e-07 1 1 0
1  256 0 0 1.5707963267949
2  191 61 0 0 1.5707963267949
2  192 80 0 0 1.5707963267949
4 G1 61 0 80 0
0

0101000
+250 0 -244 0 *
Wi

0101100
-248 0 +36 0 +243 0 -35 0 *
Fa
0  1e-07 61 0

0101000
+34 0 *
Ed
 1.00000014210855e-07 1 1 0
1  257 0 0 70
2  193 81 10 0 70
0

0101000
+111 10 -242 10 *
Ed
 1.00000014210855e-07 1 1 0
1  258 0 0 70
2  194 80 8 0 70
0

0101000
+113 8 -244 8 *
Wi

0101100
+32 9 +110 0 +241 0 -31 7 *
Wi

0101100
+103 0 *
Wi

0101100
+98 0 *
Wi

0101100
+93 0 *
Wi

0101100
-85 0 +81 0 -75 0 +71 0 -65 0 +61 0 -55 0 +52 0 *
Wi

0101100
+48 0 *
Fa
0  1e-07 89 0

0101000
+30 0 +29 0 +28 0 +27 0 +26 0 +25 0 *
Ed
 1e-07 1 1 1
2  195 62 0 0 1.5707963267949
0

0101000
+531 0 -531 0 *
Ed
 1e-07 1 1 0
1  259 0 0 1.5707963267949
2  196 62 0 0 1.5707963267949
2  197 81 0 0 1.5707963267949
4 G1 62 0 81 0
0

0101000
+234 0 -242 0 *
Wi

0101100
-232 0 +23 0 +240 0 -22 0 *
Fa
0  1e-07 62 0

0101000
+21 0 *
Wi

0101100
-213 0 +223 5 -235 5 *
Fa
0  1e-07 90 5

0101000
+19 0 *
Ed
 1e-07 1 1 0
1  260 0 10 70
2  198 81 10 10 70
0

0101000
+216 10 -234 10 *
Wi

0101100
+233 0 +214 0 -17 9 *
Wi

0101100
-172 0 +178 0 -182 0 +188 0 -192 0 +169 0 *
Fa
0  1e-07 91 0

0101000
+16 0 +15 0 *
Ed
 1.00000007105427e-07 1 1 0
1  261 0 0 10
2  199 81 10 0 10
0

0101000
+109 10 -216 10 *
Wi

0101100
-107 9 -215 0 +13 9 *
Fa
0  1e-07 92 9

0101000
+12 0 *
Ed
 1.00000007105427e-07 1 1 0
1  262 0 0 10
2  200 80 8 0 10
0

0101000
+115 8 -157 8 *
Wi

0101100
-114 7 -156 0 +10 7 *
Fa
0  1e-07 93 7

0101000
+9 0 *
Wi

0101100
-10 7 -40 7 -35 0 +31 7 +112 0 *
Fa
0  1e-07 80 0

0101000
+7 0 *
Wi

0101100
-13 9 -17 9 -22 0 +32 9 -108 0 *
Fa
0  1e-07 81 0

0101000
+5 0 *
Sh

0101100
+639 0 +559 0 +554 0 -482 0 -479 0 +476 0 +473 0 -470 0 -467 0 +462 0 
+432 0 -427 0 -422 0 +390 0 -386 0 -381 0 -344 0 -341 0 -335 0 -328 0 
+325 0 -320 0 -317 0 +310 0 +307 0 -304 0 -301 0 -298 0 -294 0 +289 0 
-284 0 +280 0 -277 0 +274 0 -271 0 -269 0 -266 0 -263 0 -260 0 +253 0 
-245 0 +238 0 +227 0 +224 0 +221 0 +211 0 +208 0 +205 0 +203 0 +200 0 
-197 0 -190 0 -185 0 +180 0 -175 0 +170 0 -167 0 +164 0 +162 0 +152 0 
+149 0 +146 0 +139 0 -134 0 +129 0 -124 0 -119 0 -116 0 +105 0 -100 0 
-95 0 -90 0 +83 0 -78 0 +73 0 -68 0 +63 0 -58 0 -53 0 -50 0 
-45 0 +43 0 +41 0 -37 0 -33 0 +24 0 +20 0 -18 0 +14 0 -11 0 
+8 0 +6 0 -4 0 *
So

0100000
+3 0 *
Co

1100000
+2 0 *

+1 0 